<?xml version="1.0" standalone="no"?>
<!DOCTYPE svg PUBLIC "-//W3C//DTD SVG 20010904//EN"
 "http://www.w3.org/TR/2001/REC-SVG-20010904/DTD/svg10.dtd">
<svg version="1.0" xmlns="http://www.w3.org/2000/svg"
 width="800.000000pt" height="800.000000pt" viewBox="0 0 800.000000 800.000000"
 preserveAspectRatio="xMidYMid meet">
<metadata>
Created by potrace 1.11, written by Peter Selinger 2001-2013
</metadata>
<g transform="translate(0.000000,800.000000) scale(0.100000,-0.100000)"
fill="#000000" stroke="none">
<path d="M3195 7330 c-11 -4 -31 -20 -45 -35 l-25 -27 -5 -996 -5 -997 -84
515 c-46 283 -90 528 -98 543 -18 35 -69 67 -108 67 -64 0 -135 -66 -135 -125
0 -11 81 -515 179 -1120 98 -605 178 -1101 177 -1101 0 -1 -72 8 -159 19 -180
24 -223 19 -332 -31 -74 -35 -125 -78 -181 -155 -23 -31 -45 -54 -47 -50 -3 5
-132 395 -287 868 -155 473 -289 873 -297 888 -18 36 -69 67 -112 67 -70 0
-141 -66 -141 -131 0 -21 609 -1892 633 -1946 8 -19 -36 -83 -372 -537 -397
-535 -425 -579 -462 -724 -18 -71 -19 -118 -19 -767 l0 -692 23 -43 c25 -48
75 -80 122 -80 70 1 95 26 533 570 232 289 449 558 482 599 l60 74 -1 -319 0
-319 -48 -35 c-54 -40 -459 -486 -480 -530 -38 -78 50 -158 131 -119 13 6 121
121 240 254 238 266 269 291 379 301 31 3 831 -62 1860 -150 993 -86 1835
-156 1870 -156 81 0 153 33 204 93 70 82 67 21 72 1248 l6 1106 -28 62 c-36
80 -111 150 -186 174 -40 13 -862 127 -915 127 -5 0 69 549 164 1220 96 673
171 1232 168 1246 -11 41 -67 94 -107 100 -45 8 -101 -17 -125 -54 -13 -19
-61 -334 -190 -1245 -95 -671 -175 -1222 -178 -1224 -6 -6 -222 18 -235 27 -7
4 -15 219 -21 599 l-11 592 120 343 c67 188 121 356 121 372 0 69 -86 143
-151 129 -17 -4 -45 -20 -64 -36 l-33 -29 -6 132 c-3 73 -8 327 -11 563 -7
479 -7 480 -75 517 -67 35 -148 12 -182 -54 -18 -34 -18 -68 -2 -970 l16 -936
-198 -563 c-109 -310 -199 -566 -200 -567 -3 -4 -168 15 -216 24 -20 4 -28 12
-28 26 0 18 -185 915 -226 1099 -11 47 -23 74 -43 93 -37 35 -96 44 -140 22
-35 -19 -71 -70 -71 -102 0 -11 50 -258 110 -547 61 -290 110 -533 110 -540 0
-11 -41 -8 -212 14 -117 15 -232 30 -255 34 l-43 6 0 1611 c0 1483 -1 1613
-17 1645 -28 60 -105 89 -168 63z m1614 -3346 l1 -160 -72 9 c-40 5 -74 10
-76 11 -1 2 28 89 65 195 67 189 68 192 75 149 3 -23 7 -115 7 -204z m-1745
-129 c148 -19 275 -35 283 -35 11 0 13 -73 13 -391 l0 -391 -37 6 c-165 25
-588 67 -630 63 l-53 -6 0 384 c0 241 4 386 10 390 17 10 94 22 120 18 14 -2
146 -19 294 -38z m746 -96 c179 -23 329 -46 334 -50 5 -5 12 -177 15 -384 6
-370 6 -375 -14 -375 -41 2 -665 76 -669 81 -2 2 -6 176 -8 387 -3 267 -1 382
6 382 6 0 157 -19 336 -41z m-1370 -765 c-27 -25 -67 -69 -87 -96 l-38 -49 -6
308 -6 308 91 124 91 124 3 -336 2 -336 -50 -47z m2194 656 c170 -22 310 -41
312 -42 1 -2 4 -171 6 -376 3 -325 1 -372 -12 -372 -24 0 -645 72 -648 75 -2
2 -6 174 -9 383 l-6 380 24 -4 c13 -2 163 -22 333 -44z m774 -100 c168 -23
308 -43 312 -46 7 -8 23 -724 16 -731 -4 -4 -656 65 -663 71 -1 0 -5 169 -9
374 l-7 372 22 0 c12 0 160 -18 329 -40z m737 -95 c154 -20 295 -42 313 -50
17 -8 41 -29 52 -47 19 -31 20 -51 20 -355 0 -301 -1 -323 -17 -323 -18 0
-657 71 -660 74 0 0 -5 166 -10 369 -7 323 -6 367 7 367 8 0 141 -16 295 -35z
m-3906 -494 l1 -203 -72 -91 -73 -91 -3 302 -2 302 67 90 68 91 6 -98 c4 -54
7 -190 8 -302z m-226 -193 l5 -287 -80 -101 c-44 -55 -82 -100 -84 -100 -2 0
-4 130 -4 288 l0 288 76 103 c42 56 78 100 79 99 1 -2 5 -132 8 -290z m1038
157 c167 -19 304 -35 306 -35 2 0 3 -139 3 -310 0 -170 -3 -310 -6 -310 -4 0
-144 16 -313 36 -239 28 -316 34 -354 26 l-47 -9 2 310 3 311 25 7 c43 12 70
10 381 -26z m789 -91 c179 -20 326 -37 326 -38 1 0 4 -141 7 -311 l7 -311 -33
4 c-17 2 -176 20 -352 41 l-320 37 -3 312 -2 312 22 -5 c13 -2 169 -21 348
-41z m-1372 -593 c-29 -19 -63 -54 -110 -111 l-37 -45 -1 266 0 266 83 104 82
103 3 -283 2 -284 -22 -16z m2199 498 l292 -33 3 -309 c2 -170 1 -310 -2 -311
-6 -3 -652 72 -655 76 -1 2 -5 142 -9 312 l-7 309 43 -6 c24 -3 175 -20 335
-38z m-2877 -257 l0 -287 -90 -113 c-50 -61 -93 -112 -95 -112 -3 0 -5 123 -5
273 l0 274 93 126 c50 70 93 127 95 127 1 0 2 -129 2 -288z m3640 170 l315
-37 8 -309 c5 -169 7 -310 5 -312 -4 -3 -669 73 -674 78 -1 2 -6 142 -10 311
l-7 307 24 -1 c13 0 166 -17 339 -37z m803 -93 l297 -34 0 -285 c0 -274 -1
-287 -20 -308 -12 -12 -31 -22 -43 -22 -34 1 -587 67 -592 71 -2 2 -7 143 -11
313 l-7 309 39 -5 c21 -3 173 -20 337 -39z m-3984 -324 l1 -240 -75 -94 -75
-94 0 268 0 267 67 85 c55 69 69 81 74 66 4 -10 8 -126 8 -258z m-741 -393
l-43 -55 -3 206 c-3 229 6 290 55 393 l28 59 3 -274 2 -274 -42 -55z m513 130
l1 -262 -78 -97 -79 -97 -3 263 -2 263 77 98 c43 54 79 97 80 96 1 -1 3 -120
4 -264z m2579 -42 c997 -115 1836 -210 1866 -210 l54 0 0 -275 c0 -287 -3
-313 -44 -335 -18 -9 -399 21 -1886 149 -1309 112 -1879 157 -1912 152 l-48
-8 0 96 c0 53 3 214 7 358 l6 262 26 10 c14 5 47 10 73 10 26 1 862 -93 1858
-209z m-2800 -233 l0 -262 -90 -112 c-49 -61 -94 -114 -100 -118 -7 -4 -10 76
-10 253 l0 259 97 122 c53 66 98 121 100 121 2 0 3 -118 3 -263z m-250 -314
l0 -256 -42 -55 -43 -55 -3 262 -2 262 37 49 c21 27 41 49 46 50 4 0 7 -115 7
-257z"/>
</g>
</svg>
