<svg fill="#fff" width="150" height="150" viewBox="0 0 150 150" xmlns="http://www.w3.org/2000/svg">
<path d="M136.182 9.25004L139.869 12.9375C144.95 18.025 144.182 27.0438 138.138 33.0813L62.0941 109.125L37.4566 118.138C34.3629 119.275 31.3504 117.8 30.7379 114.856C30.5309 113.788 30.6284 112.684 31.0191 111.669L40.2066 86.8188L116.038 10.9813C122.082 4.94379 131.1 4.16879 136.182 9.25629V9.25004ZM58.7754 16.8125C59.5962 16.8125 60.4089 16.9742 61.1672 17.2883C61.9254 17.6024 62.6144 18.0628 63.1948 18.6431C63.7752 19.2235 64.2355 19.9125 64.5496 20.6708C64.8637 21.429 65.0254 22.2418 65.0254 23.0625C65.0254 23.8833 64.8637 24.696 64.5496 25.4543C64.2355 26.2126 63.7752 26.9016 63.1948 27.482C62.6144 28.0623 61.9254 28.5227 61.1672 28.8368C60.4089 29.1509 59.5962 29.3125 58.7754 29.3125H33.7754C30.4602 29.3125 27.2808 30.6295 24.9366 32.9737C22.5924 35.3179 21.2754 38.4973 21.2754 41.8125V116.813C21.2754 120.128 22.5924 123.307 24.9366 125.651C27.2808 127.996 30.4602 129.313 33.7754 129.313H108.775C112.091 129.313 115.27 127.996 117.614 125.651C119.958 123.307 121.275 120.128 121.275 116.813V91.8125C121.275 90.1549 121.934 88.5652 123.106 87.3931C124.278 86.221 125.868 85.5625 127.525 85.5625C129.183 85.5625 130.773 86.221 131.945 87.3931C133.117 88.5652 133.775 90.1549 133.775 91.8125V116.813C133.775 123.443 131.141 129.802 126.453 134.49C121.765 139.179 115.406 141.813 108.775 141.813H33.7754C27.145 141.813 20.7861 139.179 16.0977 134.49C11.4093 129.802 8.77539 123.443 8.77539 116.813V41.8125C8.77539 35.1821 11.4093 28.8233 16.0977 24.1349C20.7861 19.4465 27.145 16.8125 33.7754 16.8125H58.7754Z"/>
</svg>
