<svg width="40" height="40" viewBox="0 0 40 40" fill="none" xmlns="http://www.w3.org/2000/svg">
<path d="M28.3566 23.8333C28.5099 22.5683 28.6249 21.3033 28.6249 19.9999C28.6249 18.6966 28.5099 17.4316 28.3566 16.1666H34.8349C35.1416 17.3933 35.3333 18.6774 35.3333 19.9999C35.3333 21.3224 35.1416 22.6066 34.8349 23.8333H28.3566ZM24.9641 34.4899C26.1141 32.3624 26.9958 30.0624 27.6091 27.6666H33.2633C31.4063 30.8641 28.4603 33.2863 24.9641 34.4899ZM24.4849 23.8333H15.5149C15.3233 22.5683 15.2083 21.3033 15.2083 19.9999C15.2083 18.6966 15.3233 17.4124 15.5149 16.1666H24.4849C24.6574 17.4124 24.7916 18.6966 24.7916 19.9999C24.7916 21.3033 24.6574 22.5683 24.4849 23.8333ZM19.9999 35.2566C18.4091 32.9566 17.1249 30.4074 16.3391 27.6666H23.6608C22.8749 30.4074 21.5908 32.9566 19.9999 35.2566ZM12.3333 12.3333H6.73659C8.57439 9.12708 11.5183 6.7011 15.0166 5.50992C13.8666 7.63742 13.0041 9.93742 12.3333 12.3333ZM6.73659 27.6666H12.3333C13.0041 30.0624 13.8666 32.3624 15.0166 34.4899C11.5256 33.2856 8.58587 30.8631 6.73659 27.6666ZM5.16492 23.8333C4.85825 22.6066 4.66659 21.3224 4.66659 19.9999C4.66659 18.6774 4.85825 17.3933 5.16492 16.1666H11.6433C11.4899 17.4316 11.3749 18.6966 11.3749 19.9999C11.3749 21.3033 11.4899 22.5683 11.6433 23.8333H5.16492ZM19.9999 4.72409C21.5908 7.02409 22.8749 9.59242 23.6608 12.3333H16.3391C17.1249 9.59242 18.4091 7.02409 19.9999 4.72409ZM33.2633 12.3333H27.6091C27.0092 9.95938 26.1209 7.66789 24.9641 5.50992C28.4908 6.71742 31.4233 9.15159 33.2633 12.3333ZM19.9999 0.833252C9.40075 0.833252 0.833252 9.45825 0.833252 19.9999C0.833252 25.0832 2.85259 29.9584 6.44704 33.5528C8.22683 35.3326 10.3397 36.7444 12.6652 37.7076C14.9906 38.6708 17.4829 39.1666 19.9999 39.1666C25.0832 39.1666 29.9584 37.1473 33.5528 33.5528C37.1472 29.9584 39.1666 25.0832 39.1666 19.9999C39.1666 17.4829 38.6708 14.9906 37.7076 12.6652C36.7444 10.3397 35.3326 8.22683 33.5528 6.44704C31.773 4.66725 29.6601 3.25544 27.3347 2.29223C25.0093 1.32901 22.5169 0.833252 19.9999 0.833252Z" fill="black"/>
</svg>
