<svg width="37" height="36" viewBox="0 0 37 36" fill="none" xmlns="http://www.w3.org/2000/svg">
<path d="M18.4998 12.0116C15.2743 12.0116 12.6419 14.7024 12.6419 17.9997C12.6419 21.297 15.2743 23.9878 18.4998 23.9878C21.7254 23.9878 24.3578 21.297 24.3578 17.9997C24.3578 14.7024 21.7254 12.0116 18.4998 12.0116ZM36.0692 17.9997C36.0692 15.52 36.0912 13.0628 35.9549 10.5876C35.8187 7.71259 35.1771 5.16103 33.1205 3.05869C31.0594 0.951849 28.5677 0.300482 25.7552 0.161224C23.3294 0.021966 20.9256 0.044427 18.5042 0.044427C16.0785 0.044427 13.6746 0.021966 11.2533 0.161224C8.44076 0.300482 5.94467 0.956341 3.88803 3.05869C1.82699 5.16552 1.18978 7.71259 1.05355 10.5876C0.917323 13.0673 0.939295 15.5245 0.939295 17.9997C0.939295 20.4749 0.917323 22.9366 1.05355 25.4118C1.18978 28.2868 1.83139 30.8384 3.88803 32.9407C5.94906 35.0476 8.44076 35.6989 11.2533 35.8382C13.679 35.9774 16.0829 35.955 18.5042 35.955C20.93 35.955 23.3338 35.9774 25.7552 35.8382C28.5677 35.6989 31.0638 35.0431 33.1205 32.9407C35.1815 30.8339 35.8187 28.2868 35.9549 25.4118C36.0956 22.9366 36.0692 20.4794 36.0692 17.9997ZM18.4998 27.2132C13.5121 27.2132 9.48666 23.0983 9.48666 17.9997C9.48666 12.9011 13.5121 8.78622 18.4998 8.78622C23.4876 8.78622 27.513 12.9011 27.513 17.9997C27.513 23.0983 23.4876 27.2132 18.4998 27.2132ZM27.8822 10.5606C26.7176 10.5606 25.7772 9.59931 25.7772 8.40888C25.7772 7.21845 26.7176 6.25712 27.8822 6.25712C29.0467 6.25712 29.9872 7.21845 29.9872 8.40888C29.9875 8.69155 29.9333 8.97152 29.8276 9.23274C29.722 9.49397 29.5669 9.73132 29.3714 9.9312C29.1759 10.1311 28.9437 10.2896 28.6881 10.3976C28.4326 10.5056 28.1587 10.561 27.8822 10.5606Z" fill="black"/>
</svg>
