<svg fill="#fff" width="150" height="150" viewBox="0 0 150 150" xmlns="http://www.w3.org/2000/svg">
<g clip-path="url(#clip0)">
<path d="M48.4834 71.8213C40.074 74.8828 34.4326 83.8916 34.9998 93.5303C37.6717 89.8037 41.7521 86.5869 46.6951 84.4717L48.4834 71.8213ZM22.456 86.4258L15.0193 33.835C14.9513 33.3604 15.0849 33.0674 15.0756 33.0586C28.6131 23.666 43.9318 18.7002 59.3748 18.7002C59.7521 18.7002 60.1318 18.75 60.5115 18.7559C63.781 14.8096 67.9482 12.0674 72.6029 11.1387C77.0303 10.2539 81.5209 9.80566 86.0045 9.58008C83.6631 5.49316 80.267 2.48145 76.2146 1.66992C70.6107 0.553711 64.9787 0 59.3724 0C41.4053 0 23.6771 5.68945 7.78181 16.7168C2.11697 20.6484 -0.918188 28.8516 0.246656 37.084L7.68337 89.6748C11.0185 113.265 39.6357 131.3 55.6013 131.3C56.4427 131.3 57.1834 131.165 57.9474 131.065C54.7787 126.062 51.1646 119.206 48.6896 111.267C37.531 107.464 23.8318 96.1436 22.456 86.4258ZM45.3193 46.1543C45.1482 44.9473 44.7967 43.8486 44.3654 42.8145C42.4318 45.4248 39.5209 47.4287 36.0873 48.1816C32.6537 48.9375 29.3677 48.2988 26.8342 46.667C26.7123 47.8213 26.6842 49.0049 26.8552 50.2119C27.7552 56.5693 32.6162 60.8145 37.7162 59.6953C42.8138 58.5762 46.2193 52.5117 45.3193 46.1543ZM142.219 35.4199C121.365 20.9531 97.3529 15.6709 73.7865 20.376C67.3857 21.6533 62.2834 28.0693 61.1209 36.3018L53.6842 88.8926C50.0771 114.396 76.0154 146.394 90.7881 149.64C105.561 152.889 138.711 133.881 142.318 108.378L149.754 55.7871C150.919 47.5518 147.884 39.3486 142.219 35.4199ZM78.1787 63.7793C79.0787 57.4219 83.9396 53.1768 89.0396 54.2988C94.1396 55.4209 97.5428 61.4824 96.6451 67.8398C96.474 69.0469 96.1224 70.1455 95.6912 71.1797C93.7576 68.5693 90.8467 66.5654 87.4131 65.8125C83.9795 65.0566 80.6935 65.6953 78.1599 67.3271C78.0357 66.1699 78.0076 64.9863 78.1787 63.7793ZM94.6951 122.01C81.6451 119.142 72.7763 104.646 73.8263 88.9336C78.6545 96.416 87.0006 102.46 97.1443 104.689C107.288 106.919 116.79 104.798 123.378 99.8262C120.054 115.043 107.743 124.878 94.6951 122.01ZM125.234 77.6719C123.301 75.0615 120.387 73.0576 116.954 72.3047C113.52 71.5488 110.234 72.1875 107.701 73.8193C107.579 72.665 107.551 71.4814 107.722 70.2744C108.622 63.917 113.483 59.6719 118.583 60.791C123.68 61.9131 127.086 67.9746 126.188 74.332C126.017 75.542 125.665 76.6406 125.234 77.6719Z"/>
</g>
<defs>
<clipPath id="clip0">
<rect width="150" height="150"/>
</clipPath>
</defs>
</svg>
