<svg width="86" height="105" viewBox="0 0 86 105" fill="none" xmlns="http://www.w3.org/2000/svg">
<path fill-rule="evenodd" clip-rule="evenodd" d="M23.7684 51.2151C23.7687 51.2152 23.769 51.2152 23.7693 51.2152L81.0737 58.6797L81.093 58.6828C82.2396 58.8631 83.2869 59.4407 84.0527 60.3151C84.8185 61.1894 85.2543 62.3053 85.2844 63.4685L85.2849 63.4878V84.0667C85.2964 84.6515 85.1822 85.2321 84.9501 85.7689C84.7153 86.312 84.3655 86.7973 83.9248 87.1912C83.4841 87.5851 82.9632 87.8781 82.3982 88.0499C81.8396 88.2198 81.2511 88.2671 80.6727 88.1887L23.4109 81.556L23.4105 81.5559C22.9148 81.4984 22.2244 81.6039 21.5168 81.8938C20.8092 82.1836 20.242 82.5933 19.9272 82.9841L4.49843 102.138C4.1751 102.539 3.79302 102.912 3.34794 103.163C2.90165 103.414 2.2443 103.616 1.53567 103.365C0.827131 103.114 0.442315 102.542 0.252661 102.066C0.0634966 101.591 0 101.06 0 100.544V81.1108C0 80.0847 0.243519 78.9095 0.595767 77.8441C0.948095 76.7784 1.45264 75.6912 2.06153 74.8686L17.6776 53.8031C17.6777 53.803 17.6778 53.8028 17.6779 53.8027C18.3597 52.8824 19.3717 52.1856 20.4028 51.7478C21.4339 51.31 22.6363 51.0665 23.7684 51.2151ZM21.5589 54.4846C20.8834 54.7714 20.3495 55.181 20.0576 55.5751L4.44201 76.6399C4.07947 77.1296 3.69925 77.9033 3.40966 78.7792C3.11999 79.6554 2.96445 80.5024 2.96445 81.1108V99.3119L17.6209 81.1168C18.33 80.2365 19.3591 79.5671 20.3954 79.1425C21.4317 78.718 22.6328 78.4737 23.7516 78.6036L81.0467 85.2402L81.0644 85.2427C81.223 85.265 81.3846 85.2524 81.5379 85.2058C81.6911 85.1592 81.8325 85.0797 81.952 84.9728C82.0716 84.8659 82.1665 84.7342 82.2302 84.5869C82.2939 84.4396 82.3248 84.2801 82.3209 84.1196L82.3204 84.1012V63.5289C82.3046 63.0666 82.1297 62.6239 81.8251 62.2761C81.5205 61.9283 81.1053 61.6972 80.6503 61.6216L23.3837 54.1621C22.8992 54.0984 22.2345 54.1977 21.5589 54.4846Z" fill="black"/>
<path fill-rule="evenodd" clip-rule="evenodd" d="M20.5226 52.3085C21.1207 52.3085 21.6056 52.8236 21.6056 53.4589V72.4439C21.6056 74.0857 21.6056 76.7795 21.5882 78.4312C21.5882 78.4322 21.5882 78.4332 21.5882 78.4341L21.4973 94.3766C21.4936 95.0119 21.0058 95.5238 20.4077 95.5199C19.8096 95.5161 19.3277 94.9979 19.3313 94.3626L19.4223 78.4114L19.4223 78.4084C19.4396 76.7714 19.4396 74.0872 19.4396 72.4395V53.4589C19.4396 52.8236 19.9245 52.3085 20.5226 52.3085Z" fill="black"/>
<path fill-rule="evenodd" clip-rule="evenodd" d="M32.8996 52.3085C33.4874 52.3067 33.9658 52.6655 33.9682 53.1099L34.1141 79.9291C34.1165 80.3735 33.6421 80.7353 33.0543 80.7371C32.4666 80.7389 31.9882 80.3801 31.9858 79.9357L31.8399 53.1165C31.8374 52.6721 32.3119 52.3104 32.8996 52.3085Z" fill="black"/>
<path fill-rule="evenodd" clip-rule="evenodd" d="M45.2491 54.5829C45.7538 54.5766 46.1688 54.9262 46.1761 55.3637L46.6226 82.2076C46.6299 82.6452 46.2266 83.005 45.722 83.0113C45.2173 83.0176 44.8023 82.668 44.795 82.2305L44.3485 55.3866C44.3412 54.949 44.7444 54.5892 45.2491 54.5829Z" fill="black"/>
<path fill-rule="evenodd" clip-rule="evenodd" d="M57.8032 55.72C58.3315 55.7151 58.7647 56.0681 58.7706 56.5086L59.1314 83.3421C59.1373 83.7825 58.7138 84.1435 58.1855 84.1485C57.6571 84.1534 57.224 83.8004 57.2181 83.3599L56.8572 56.5264C56.8513 56.086 57.2748 55.725 57.8032 55.72Z" fill="black"/>
<path fill-rule="evenodd" clip-rule="evenodd" d="M70.1648 57.9945C70.6164 57.9846 70.9911 58.3209 71.0017 58.7457L71.6398 84.4984C71.6503 84.9232 71.2927 85.2756 70.841 85.2855C70.3893 85.2954 70.0146 84.959 70.0041 84.5342L69.3659 58.7816C69.3554 58.3568 69.7131 58.0044 70.1648 57.9945Z" fill="black"/>
<path fill-rule="evenodd" clip-rule="evenodd" d="M11.8178 62.5428C12.0665 62.5405 12.27 62.7444 12.2723 62.9983L12.5087 89.3704C12.511 89.6242 12.3112 89.8319 12.0625 89.8342C11.8138 89.8365 11.6103 89.6326 11.608 89.3788L11.3716 63.0067C11.3693 62.7528 11.5691 62.5452 11.8178 62.5428Z" fill="black"/>
<path fill-rule="evenodd" clip-rule="evenodd" d="M15.1996 57.9943C15.4326 57.9913 15.6238 58.1923 15.6266 58.4433L15.9198 84.8257C15.9226 85.0767 15.736 85.2826 15.503 85.2856C15.2699 85.2887 15.0788 85.0876 15.076 84.8366L14.7827 58.4542C14.78 58.2032 14.9666 57.9973 15.1996 57.9943Z" fill="black"/>
<path fill-rule="evenodd" clip-rule="evenodd" d="M8.38751 67.0914C8.62628 67.0885 8.82201 67.2954 8.82468 67.5535L9.09708 93.9102C9.09974 94.1683 8.90834 94.3799 8.66956 94.3828C8.43078 94.3856 8.23505 94.1788 8.23238 93.9207L7.95999 67.5639C7.95732 67.3058 8.14873 67.0943 8.38751 67.0914Z" fill="black"/>
<path fill-rule="evenodd" clip-rule="evenodd" d="M20.9408 68.626C20.2052 68.933 19.5942 69.3749 19.2395 69.8257L19.239 69.8264L2.02147 91.6763C1.63144 92.1713 0.917974 92.2532 0.427905 91.8593C-0.0621644 91.4654 -0.143262 90.7448 0.24677 90.2498L17.4638 68.4005C17.4639 68.4003 17.4641 68.4 17.4643 68.3998M17.4643 68.3998C18.119 67.568 19.0841 66.9221 20.0748 66.5087C21.0658 66.0952 22.2007 65.865 23.2449 65.9868L83.1447 72.9853C83.7669 73.058 84.2129 73.6264 84.1409 74.2548C84.0689 74.8832 83.5062 75.3337 82.884 75.261L22.9847 68.2625C22.9846 68.2625 22.9847 68.2625 22.9847 68.2625C22.4185 68.1965 21.6764 68.3191 20.9408 68.626" fill="black"/>
<path fill-rule="evenodd" clip-rule="evenodd" d="M83.8121 78.4629C84.6365 78.4737 85.2961 79.154 85.2854 79.9825L85.0742 96.3119C85.0742 96.3145 85.0742 96.3171 85.0742 96.3197C85.0708 96.9099 84.9456 97.4931 84.7066 98.0323C84.4666 98.5739 84.1169 99.0593 83.6799 99.4576C83.2429 99.856 82.7281 100.158 82.1684 100.346C81.6109 100.533 81.0209 100.601 80.4358 100.547C80.4335 100.547 80.4311 100.546 80.4288 100.546L22.8836 95.6081L22.8832 95.6081C22.3576 95.5628 21.6254 95.684 20.8723 95.9829C20.1193 96.2819 19.5013 96.6967 19.1468 97.0916L12.8354 104.122C12.2831 104.737 11.3392 104.786 10.727 104.231C10.1148 103.676 10.0663 102.727 10.6186 102.112L16.9298 95.0818C16.9298 95.0818 16.9298 95.0819 16.9298 95.0818C17.6755 94.2512 18.726 93.6089 19.7753 93.1924C20.8245 92.7759 22.0285 92.5231 23.1381 92.6186L80.7013 97.5583L80.7075 97.5588C80.8821 97.5753 81.0582 97.555 81.2246 97.4993C81.391 97.4436 81.5441 97.3536 81.674 97.2352C81.8039 97.1168 81.9079 96.9725 81.9792 96.8115C82.0506 96.6505 82.0878 96.4763 82.0885 96.3L82.0886 96.2932L82.2999 79.9435C82.3107 79.1151 82.9877 78.4522 83.8121 78.4629Z" fill="black"/>
<path fill-rule="evenodd" clip-rule="evenodd" d="M70.8964 17.0797C72.1002 17.2469 72.9313 18.2962 72.7529 19.4235L66.9261 56.2331C66.7476 57.3604 65.6271 58.1388 64.4233 57.9717C63.2196 57.8046 62.3884 56.7553 62.5668 55.628L68.3937 18.8183C68.5721 17.691 69.6926 16.9126 70.8964 17.0797Z" fill="black"/>
<path fill-rule="evenodd" clip-rule="evenodd" d="M56.4657 5.686C57.5226 5.66774 58.3933 6.56332 58.4104 7.68633L59.1313 54.7904C59.1485 55.9134 58.3057 56.8386 57.2489 56.8569C56.192 56.8751 55.3213 55.9795 55.3041 54.8565L54.5833 7.75246C54.5661 6.62945 55.4089 5.70427 56.4657 5.686Z" fill="black"/>
<path fill-rule="evenodd" clip-rule="evenodd" d="M61.261 24.0039C62.2691 24.3929 62.791 25.5805 62.4266 26.6566L52.6638 55.489C52.2994 56.5651 51.1868 57.1221 50.1787 56.7332C49.1706 56.3443 48.6487 55.1566 49.0131 54.0805L58.7759 25.2481C59.1403 24.172 60.2529 23.615 61.261 24.0039Z" fill="black"/>
<path fill-rule="evenodd" clip-rule="evenodd" d="M38.9178 34.1563C39.8642 33.9346 40.7922 34.612 40.9907 35.6694L44.3111 53.362C44.5096 54.4194 43.9032 55.4562 42.9568 55.6779C42.0104 55.8996 41.0824 55.2222 40.8839 54.1649L37.5635 36.4722C37.3651 35.4149 37.9714 34.378 38.9178 34.1563Z" fill="black"/>
<path fill-rule="evenodd" clip-rule="evenodd" d="M30.7057 8.81618e-09C31.9604 0.000103697 32.9774 0.914806 32.9773 2.04305L32.9722 51.403C32.9721 52.5313 31.9549 53.4458 30.7003 53.4457C29.4456 53.4456 28.4286 52.5309 28.4287 51.4026L28.4338 2.04267C28.4339 0.914431 29.4511 -0.00010368 30.7057 8.81618e-09Z" fill="black"/>
<path fill-rule="evenodd" clip-rule="evenodd" d="M4.85517 26.2571C5.94993 25.8981 7.12365 26.5093 7.47673 27.6223L16.9557 57.5007C17.3088 58.6136 16.7076 59.8068 15.6128 60.1657C14.518 60.5247 13.3443 59.9135 12.9912 58.8005L3.51224 28.9221C3.15916 27.8092 3.76041 26.616 4.85517 26.2571Z" fill="black"/>
<path fill-rule="evenodd" clip-rule="evenodd" d="M23.3552 14.8112C24.4955 14.6243 25.574 15.3819 25.764 16.5033L31.8112 52.1855C32.0012 53.3069 31.2309 54.3676 30.0906 54.5545C28.9502 54.7414 27.8717 53.9838 27.6817 52.8623L21.6345 17.1802C21.4445 16.0587 22.2148 14.9981 23.3552 14.8112Z" fill="black"/>
</svg>
