<svg width="972" height="261" viewBox="0 0 972 261" fill="none" xmlns="http://www.w3.org/2000/svg">
<path d="M288.938 225.776C293.448 225.776 295.704 227.703 295.704 231.557C295.704 235.486 293.448 237.451 288.938 237.451H240.902C238.947 237.451 237.368 236.884 236.166 235.751C235.038 234.542 234.474 233.03 234.474 231.217C234.474 229.403 235.076 227.665 236.278 226.003L276.647 169.215H241.353C236.842 169.215 234.587 167.288 234.587 163.434C234.587 159.505 236.842 157.54 241.353 157.54H287.923C289.878 157.54 291.419 158.145 292.546 159.354C293.749 160.487 294.35 161.923 294.35 163.661C294.35 165.399 293.711 167.137 292.433 168.875L252.065 225.776H288.938ZM264.469 151.306C262.74 151.306 261.011 150.626 259.282 149.266L249.922 140.538C248.795 139.48 248.231 138.309 248.231 137.024C248.231 135.891 248.644 134.908 249.471 134.077C250.298 133.17 251.313 132.717 252.516 132.717C253.794 132.717 254.959 133.246 256.012 134.304L264.469 143.032L272.926 134.304C273.978 133.246 275.143 132.717 276.421 132.717C277.624 132.717 278.639 133.17 279.466 134.077C280.368 134.908 280.819 135.891 280.819 137.024C280.819 138.233 280.218 139.405 279.015 140.538L269.656 149.266C268.077 150.626 266.348 151.306 264.469 151.306Z" fill="black"/>
<path d="M328.381 180.663C336.049 180.663 341.725 182.59 345.408 186.444C349.167 190.222 351.046 196.003 351.046 203.786V231.443C351.046 233.484 350.445 235.108 349.242 236.317C348.039 237.451 346.386 238.018 344.281 238.018C342.326 238.018 340.71 237.413 339.432 236.204C338.229 234.995 337.628 233.408 337.628 231.443V228.95C336.35 231.897 334.32 234.202 331.539 235.864C328.832 237.527 325.675 238.358 322.067 238.358C318.383 238.358 315.038 237.602 312.031 236.091C309.024 234.579 306.656 232.501 304.927 229.857C303.198 227.212 302.334 224.265 302.334 221.015C302.334 216.935 303.348 213.723 305.378 211.381C307.483 209.038 310.866 207.338 315.527 206.28C320.187 205.222 326.615 204.693 334.809 204.693H337.628V202.086C337.628 198.384 336.839 195.701 335.26 194.039C333.681 192.301 331.125 191.432 327.592 191.432C325.412 191.432 323.194 191.772 320.939 192.452C318.684 193.056 316.015 193.963 312.933 195.172C310.979 196.154 309.55 196.646 308.648 196.646C307.295 196.646 306.167 196.154 305.265 195.172C304.438 194.19 304.025 192.905 304.025 191.318C304.025 190.034 304.326 188.938 304.927 188.031C305.604 187.049 306.694 186.142 308.197 185.311C310.828 183.875 313.948 182.741 317.556 181.91C321.24 181.079 324.848 180.663 328.381 180.663ZM324.886 228.156C328.645 228.156 331.689 226.91 334.02 224.416C336.425 221.847 337.628 218.56 337.628 214.555V212.174H335.598C330.561 212.174 326.652 212.401 323.871 212.854C321.09 213.308 319.097 214.101 317.895 215.235C316.692 216.368 316.09 217.917 316.09 219.882C316.09 222.3 316.917 224.303 318.571 225.889C320.3 227.401 322.405 228.156 324.886 228.156Z" fill="black"/>
<path d="M394.013 227.59C397.772 227.816 399.651 229.517 399.651 232.69C399.651 234.504 398.899 235.902 397.396 236.884C395.967 237.791 393.9 238.169 391.194 238.018L388.149 237.791C375.52 236.884 369.205 230.083 369.205 217.388V192.678H363.567C361.538 192.678 359.959 192.225 358.831 191.318C357.779 190.411 357.253 189.089 357.253 187.351C357.253 185.613 357.779 184.291 358.831 183.384C359.959 182.477 361.538 182.024 363.567 182.024H369.205V171.596C369.205 169.555 369.844 167.931 371.122 166.722C372.4 165.513 374.129 164.908 376.309 164.908C378.414 164.908 380.106 165.513 381.384 166.722C382.662 167.931 383.301 169.555 383.301 171.596V182.024H392.885C394.915 182.024 396.456 182.477 397.509 183.384C398.636 184.291 399.2 185.613 399.2 187.351C399.2 189.089 398.636 190.411 397.509 191.318C396.456 192.225 394.915 192.678 392.885 192.678H383.301V218.408C383.301 224 385.857 226.985 390.968 227.363L394.013 227.59Z" fill="black"/>
<path d="M450.635 222.262C451.913 222.262 452.928 222.753 453.68 223.736C454.506 224.718 454.92 226.041 454.92 227.703C454.92 230.046 453.529 232.01 450.748 233.597C448.192 235.033 445.298 236.204 442.065 237.111C438.833 237.942 435.751 238.358 432.819 238.358C423.948 238.358 416.919 235.789 411.732 230.65C406.545 225.512 403.952 218.484 403.952 209.567C403.952 203.9 405.079 198.875 407.335 194.492C409.59 190.109 412.747 186.709 416.807 184.291C420.941 181.872 425.602 180.663 430.789 180.663C435.75 180.663 440.073 181.759 443.757 183.951C447.44 186.142 450.297 189.24 452.326 193.245C454.356 197.25 455.371 201.973 455.371 207.414C455.371 210.663 453.943 212.288 451.086 212.288H417.821C418.272 217.502 419.738 221.355 422.219 223.849C424.7 226.267 428.308 227.476 433.044 227.476C435.45 227.476 437.555 227.174 439.359 226.57C441.238 225.965 443.343 225.134 445.674 224.076C447.929 222.867 449.583 222.262 450.635 222.262ZM431.127 190.638C427.293 190.638 424.211 191.847 421.881 194.265C419.626 196.683 418.272 200.159 417.821 204.693H443.306C443.155 200.084 442.028 196.608 439.923 194.265C437.818 191.847 434.886 190.638 431.127 190.638Z" fill="black"/>
<path d="M491.37 238.358C485.882 238.358 481.034 237.186 476.824 234.844C472.689 232.501 469.494 229.177 467.239 224.869C464.984 220.562 463.856 215.537 463.856 209.794C463.856 204.051 465.021 198.988 467.352 194.605C469.757 190.147 473.103 186.709 477.388 184.291C481.673 181.872 486.596 180.663 492.159 180.663C495.091 180.663 498.023 181.079 500.955 181.91C503.962 182.741 506.593 183.875 508.848 185.311C511.254 186.898 512.456 188.9 512.456 191.318C512.456 192.981 512.043 194.341 511.216 195.399C510.464 196.381 509.449 196.872 508.171 196.872C507.345 196.872 506.48 196.683 505.578 196.305C504.676 195.928 503.774 195.474 502.872 194.945C501.218 193.963 499.639 193.207 498.136 192.678C496.632 192.074 494.903 191.772 492.949 191.772C488.288 191.772 484.68 193.321 482.124 196.419C479.643 199.441 478.402 203.824 478.402 209.567C478.402 215.235 479.643 219.617 482.124 222.716C484.68 225.738 488.288 227.25 492.949 227.25C494.828 227.25 496.482 226.985 497.91 226.456C499.414 225.852 501.068 225.058 502.872 224.076C503.999 223.396 504.977 222.905 505.803 222.602C506.63 222.225 507.457 222.036 508.284 222.036C509.487 222.036 510.502 222.565 511.329 223.622C512.156 224.68 512.569 226.003 512.569 227.59C512.569 228.874 512.268 230.008 511.667 230.99C511.141 231.897 510.239 232.728 508.961 233.484C506.63 234.995 503.924 236.204 500.842 237.111C497.76 237.942 494.603 238.358 491.37 238.358Z" fill="black"/>
<path d="M571.011 226.456C572.515 227.892 573.266 229.517 573.266 231.33C573.266 233.068 572.628 234.617 571.35 235.977C570.147 237.338 568.718 238.018 567.065 238.018C565.411 238.018 563.87 237.338 562.441 235.977L536.055 211.948V231.33C536.055 233.522 535.379 235.184 534.026 236.317C532.672 237.451 530.981 238.018 528.951 238.018C526.922 238.018 525.23 237.451 523.877 236.317C522.599 235.184 521.96 233.522 521.96 231.33V163.661C521.96 161.47 522.599 159.807 523.877 158.674C525.23 157.54 526.922 156.974 528.951 156.974C530.981 156.974 532.672 157.54 534.026 158.674C535.379 159.807 536.055 161.47 536.055 163.661V206.28L560.186 183.044C561.539 181.684 563.08 181.003 564.809 181.003C566.538 181.003 568.042 181.646 569.32 182.93C570.598 184.215 571.237 185.726 571.237 187.464C571.237 189.202 570.523 190.789 569.094 192.225L551.391 208.774L571.011 226.456Z" fill="black"/>
<path d="M619.766 184.971C620.367 183.61 621.156 182.628 622.134 182.024C623.186 181.344 624.314 181.003 625.516 181.003C627.245 181.003 628.786 181.608 630.14 182.817C631.568 183.951 632.282 185.386 632.282 187.124C632.282 187.955 632.057 188.824 631.606 189.731L600.822 254.567C599.544 257.136 597.552 258.42 594.845 258.42C593.116 258.42 591.575 257.854 590.222 256.72C588.944 255.662 588.305 254.302 588.305 252.64C588.305 251.808 588.531 250.864 588.982 249.806L596.649 233.597L575.676 189.731C575.3 188.976 575.112 188.107 575.112 187.124C575.112 185.386 575.826 183.913 577.255 182.704C578.758 181.495 580.449 180.89 582.329 180.89C583.607 180.89 584.772 181.23 585.824 181.91C586.877 182.515 587.704 183.497 588.305 184.857L604.092 219.882L619.766 184.971ZM606.573 174.429C605.746 175.034 604.919 175.336 604.092 175.336C603.039 175.336 602.137 174.996 601.385 174.316C600.709 173.56 600.371 172.691 600.371 171.709C600.371 170.878 600.671 170.046 601.273 169.215L612.211 154.593C613.94 152.326 615.932 151.193 618.187 151.193C619.841 151.193 621.231 151.797 622.359 153.006C623.562 154.14 624.163 155.5 624.163 157.087C624.163 159.203 623.148 161.016 621.119 162.528L606.573 174.429Z" fill="black"/>
<path d="M736.795 180.663C742.809 180.663 747.395 182.477 750.552 186.104C753.784 189.656 755.401 195.436 755.401 203.446V231.33C755.401 233.522 754.724 235.222 753.371 236.431C752.093 237.564 750.402 238.131 748.297 238.131C746.267 238.131 744.576 237.564 743.223 236.431C741.945 235.222 741.306 233.522 741.306 231.33V203.446C741.306 199.29 740.554 196.343 739.05 194.605C737.622 192.792 735.404 191.885 732.397 191.885C728.714 191.885 725.782 193.17 723.602 195.739C721.422 198.232 720.332 201.671 720.332 206.053V231.33C720.332 233.522 719.655 235.222 718.302 236.431C717.024 237.564 715.371 238.131 713.341 238.131C711.311 238.131 709.62 237.564 708.266 236.431C706.913 235.222 706.237 233.522 706.237 231.33V203.446C706.237 199.29 705.485 196.343 703.982 194.605C702.553 192.792 700.336 191.885 697.329 191.885C693.645 191.885 690.713 193.17 688.533 195.739C686.428 198.232 685.376 201.671 685.376 206.053V231.33C685.376 233.522 684.699 235.222 683.346 236.431C681.993 237.564 680.302 238.131 678.272 238.131C676.242 238.131 674.551 237.564 673.198 236.431C671.92 235.222 671.281 233.522 671.281 231.33V187.464C671.281 185.348 671.957 183.724 673.31 182.59C674.664 181.457 676.355 180.89 678.385 180.89C680.339 180.89 681.918 181.457 683.121 182.59C684.399 183.648 685.038 185.197 685.038 187.238V189.958C686.767 186.935 689.06 184.631 691.916 183.044C694.848 181.457 698.193 180.663 701.952 180.663C710.221 180.663 715.746 184.139 718.528 191.091C720.182 187.918 722.625 185.386 725.857 183.497C729.09 181.608 732.736 180.663 736.795 180.663Z" fill="black"/>
<path d="M793.632 180.663C801.3 180.663 806.976 182.59 810.659 186.444C814.418 190.222 816.297 196.003 816.297 203.786V231.443C816.297 233.484 815.696 235.108 814.493 236.317C813.29 237.451 811.636 238.018 809.531 238.018C807.577 238.018 805.961 237.413 804.683 236.204C803.48 234.995 802.879 233.408 802.879 231.443V228.95C801.601 231.897 799.571 234.202 796.789 235.864C794.083 237.527 790.926 238.358 787.318 238.358C783.634 238.358 780.289 237.602 777.282 236.091C774.275 234.579 771.907 232.501 770.178 229.857C768.449 227.212 767.584 224.265 767.584 221.015C767.584 216.935 768.599 213.723 770.629 211.381C772.734 209.038 776.117 207.338 780.777 206.28C785.438 205.222 791.866 204.693 800.06 204.693H802.879V202.086C802.879 198.384 802.089 195.701 800.511 194.039C798.932 192.301 796.376 191.432 792.843 191.432C790.663 191.432 788.445 191.772 786.19 192.452C783.935 193.056 781.266 193.963 778.184 195.172C776.229 196.154 774.801 196.646 773.899 196.646C772.546 196.646 771.418 196.154 770.516 195.172C769.689 194.19 769.276 192.905 769.276 191.318C769.276 190.034 769.576 188.938 770.178 188.031C770.854 187.049 771.944 186.142 773.448 185.311C776.079 183.875 779.199 182.741 782.807 181.91C786.491 181.079 790.099 180.663 793.632 180.663ZM790.137 228.156C793.895 228.156 796.94 226.91 799.27 224.416C801.676 221.847 802.879 218.56 802.879 214.555V212.174H800.849C795.812 212.174 791.903 212.401 789.122 212.854C786.34 213.308 784.348 214.101 783.145 215.235C781.943 216.368 781.341 217.917 781.341 219.882C781.341 222.3 782.168 224.303 783.822 225.889C785.551 227.401 787.656 228.156 790.137 228.156Z" fill="black"/>
<path d="M822.729 258.08C820.023 258.231 817.955 257.854 816.527 256.947C815.024 256.04 814.272 254.642 814.272 252.753C814.272 249.655 816.151 247.955 819.91 247.652L822.954 247.426C825.51 247.274 827.427 246.481 828.705 245.045C829.983 243.61 830.622 241.418 830.622 238.471V187.578C830.622 185.386 831.261 183.724 832.539 182.59C833.892 181.457 835.584 180.89 837.613 180.89C839.643 180.89 841.335 181.457 842.688 182.59C844.041 183.724 844.717 185.386 844.717 187.578V237.451C844.717 250.146 838.403 256.947 825.774 257.854L822.729 258.08ZM837.501 170.802C834.945 170.802 832.915 170.122 831.412 168.762C829.908 167.326 829.156 165.475 829.156 163.208C829.156 160.941 829.908 159.127 831.412 157.767C832.915 156.407 834.945 155.727 837.501 155.727C839.982 155.727 841.974 156.407 843.477 157.767C845.056 159.127 845.845 160.941 845.845 163.208C845.845 165.475 845.093 167.326 843.59 168.762C842.086 170.122 840.057 170.802 837.501 170.802Z" fill="black"/>
<path d="M883.159 180.663C890.826 180.663 896.502 182.59 900.185 186.444C903.944 190.222 905.824 196.003 905.824 203.786V231.443C905.824 233.484 905.222 235.108 904.019 236.317C902.817 237.451 901.163 238.018 899.058 238.018C897.103 238.018 895.487 237.413 894.209 236.204C893.006 234.995 892.405 233.408 892.405 231.443V228.95C891.127 231.897 889.097 234.202 886.316 235.864C883.609 237.527 880.452 238.358 876.844 238.358C873.16 238.358 869.815 237.602 866.808 236.091C863.801 234.579 861.433 232.501 859.704 229.857C857.975 227.212 857.111 224.265 857.111 221.015C857.111 216.935 858.125 213.723 860.155 211.381C862.26 209.038 865.643 207.338 870.304 206.28C874.964 205.222 881.392 204.693 889.586 204.693H892.405V202.086C892.405 198.384 891.616 195.701 890.037 194.039C888.458 192.301 885.902 191.432 882.369 191.432C880.189 191.432 877.971 191.772 875.716 192.452C873.461 193.056 870.792 193.963 867.71 195.172C865.756 196.154 864.327 196.646 863.425 196.646C862.072 196.646 860.945 196.154 860.042 195.172C859.216 194.19 858.802 192.905 858.802 191.318C858.802 190.034 859.103 188.938 859.704 188.031C860.381 187.049 861.471 186.142 862.974 185.311C865.605 183.875 868.725 182.741 872.333 181.91C876.017 181.079 879.625 180.663 883.159 180.663ZM879.663 228.156C883.422 228.156 886.466 226.91 888.797 224.416C891.202 221.847 892.405 218.56 892.405 214.555V212.174H890.375C885.339 212.174 881.43 212.401 878.648 212.854C875.867 213.308 873.874 214.101 872.672 215.235C871.469 216.368 870.867 217.917 870.867 219.882C870.867 222.3 871.694 224.303 873.348 225.889C875.077 227.401 877.182 228.156 879.663 228.156ZM885.978 174.429C885.151 175.034 884.324 175.336 883.497 175.336C882.444 175.336 881.542 174.996 880.791 174.316C880.114 173.56 879.776 172.691 879.776 171.709C879.776 170.878 880.076 170.046 880.678 169.215L891.616 154.593C893.345 152.326 895.337 151.193 897.592 151.193C899.246 151.193 900.636 151.797 901.764 153.006C902.967 154.14 903.568 155.5 903.568 157.087C903.568 159.203 902.553 161.016 900.524 162.528L885.978 174.429Z" fill="black"/>
<path d="M969.2 226.456C970.703 227.892 971.455 229.517 971.455 231.33C971.455 233.068 970.816 234.617 969.538 235.977C968.335 237.338 966.907 238.018 965.253 238.018C963.599 238.018 962.058 237.338 960.63 235.977L934.244 211.948V231.33C934.244 233.522 933.567 235.184 932.214 236.317C930.861 237.451 929.17 238.018 927.14 238.018C925.11 238.018 923.419 237.451 922.066 236.317C920.788 235.184 920.149 233.522 920.149 231.33V163.661C920.149 161.47 920.788 159.807 922.066 158.674C923.419 157.54 925.11 156.974 927.14 156.974C929.17 156.974 930.861 157.54 932.214 158.674C933.567 159.807 934.244 161.47 934.244 163.661V206.28L958.375 183.044C959.728 181.684 961.269 181.003 962.998 181.003C964.727 181.003 966.23 181.646 967.508 182.93C968.786 184.215 969.425 185.726 969.425 187.464C969.425 189.202 968.711 190.789 967.283 192.225L949.579 208.774L969.2 226.456Z" fill="black"/>
<path fill-rule="evenodd" clip-rule="evenodd" d="M59.3613 127.079L59.3635 127.079L201.741 145.632L201.79 145.64C204.638 146.088 207.24 147.524 209.143 149.697C211.046 151.87 212.129 154.644 212.203 157.535L212.205 157.583V208.732C212.233 210.185 211.95 211.628 211.373 212.963C210.79 214.313 209.92 215.519 208.825 216.498C207.73 217.477 206.436 218.205 205.032 218.632C203.644 219.054 202.182 219.172 200.745 218.977L58.4732 202.491L58.4722 202.491C57.2405 202.348 55.5252 202.61 53.767 203.331C52.009 204.051 50.5998 205.07 49.8177 206.041L11.4834 253.648C10.68 254.646 9.73075 255.573 8.6249 256.196C7.51605 256.82 5.88281 257.322 4.12216 256.697C2.36172 256.073 1.40561 254.654 0.9344 253.469C0.464404 252.288 0.306641 250.968 0.306641 249.685V201.385C0.306641 198.834 0.911685 195.914 1.78688 193.266C2.66227 190.617 3.91586 187.914 5.42869 185.87L44.2291 133.51C45.923 131.223 48.4373 129.491 50.9993 128.403C53.561 127.315 56.5487 126.71 59.3613 127.079ZM53.8717 135.205C52.1934 135.918 50.8667 136.936 50.1415 137.916L11.3432 190.272C10.4425 191.49 9.49776 193.413 8.77824 195.59C8.05854 197.767 7.67208 199.873 7.67208 201.385V246.624L44.0874 201.4C45.8492 199.212 48.406 197.548 50.9809 196.493C53.5555 195.438 56.5399 194.83 59.3196 195.153L201.674 211.649L201.718 211.655C202.113 211.71 202.514 211.679 202.895 211.563C203.276 211.447 203.627 211.25 203.924 210.984C204.221 210.718 204.457 210.391 204.615 210.025C204.773 209.659 204.85 209.262 204.84 208.863L204.839 208.818V157.685C204.8 156.536 204.365 155.436 203.608 154.571C202.852 153.707 201.82 153.132 200.689 152.945L58.4056 134.404C57.2018 134.245 55.5502 134.492 53.8717 135.205Z" fill="black"/>
<path fill-rule="evenodd" clip-rule="evenodd" d="M50.7239 129.125C52.2352 129.125 53.4603 130.409 53.4603 131.994V179.332C53.4603 183.426 53.4603 190.142 53.4164 194.261C53.4164 194.263 53.4164 194.266 53.4164 194.268L53.1866 234.02C53.1775 235.604 51.9449 236.881 50.4337 236.871C48.9224 236.861 47.7048 235.569 47.7139 233.985L47.9438 194.211L47.9439 194.204C47.9875 190.122 47.9875 183.429 47.9875 179.321V131.994C47.9875 130.409 49.2126 129.125 50.7239 129.125Z" fill="black"/>
<path fill-rule="evenodd" clip-rule="evenodd" d="M83.4829 131.28C84.5967 131.276 85.5033 132.164 85.5079 133.264L85.7844 199.673C85.789 200.774 84.8899 201.669 83.7761 201.674C82.6624 201.678 81.7558 200.79 81.7512 199.69L81.4746 133.281C81.47 132.18 82.3692 131.285 83.4829 131.28Z" fill="black"/>
<path fill-rule="evenodd" clip-rule="evenodd" d="M114.638 135.59C115.913 135.575 116.961 136.449 116.98 137.543L118.108 204.692C118.126 205.786 117.108 206.686 115.832 206.702C114.557 206.718 113.509 205.843 113.49 204.749L112.362 137.601C112.344 136.506 113.362 135.606 114.638 135.59Z" fill="black"/>
<path fill-rule="evenodd" clip-rule="evenodd" d="M145.34 139.182C146.508 139.17 147.466 140.053 147.479 141.154L148.277 208.277C148.29 209.378 147.353 210.282 146.185 210.294C145.017 210.306 144.059 209.423 144.046 208.321L143.249 141.199C143.236 140.097 144.172 139.194 145.34 139.182Z" fill="black"/>
<path fill-rule="evenodd" clip-rule="evenodd" d="M175.437 143.492C176.579 143.466 177.525 144.334 177.552 145.43L179.164 211.855C179.191 212.95 178.287 213.859 177.146 213.885C176.005 213.91 175.058 213.043 175.031 211.947L173.419 145.522C173.392 144.426 174.296 143.518 175.437 143.492Z" fill="black"/>
<path fill-rule="evenodd" clip-rule="evenodd" d="M12.159 180.125C12.7541 180.125 13.2365 180.637 13.2365 181.27V245.782C13.2365 246.414 12.7541 246.927 12.159 246.927C11.5639 246.927 11.0815 246.414 11.0815 245.782V181.27C11.0815 180.637 11.5639 180.125 12.159 180.125Z" fill="black"/>
<path fill-rule="evenodd" clip-rule="evenodd" d="M30.4479 155.703C31.2335 155.697 31.8761 156.201 31.8833 156.829L32.63 222.076C32.6372 222.704 32.0063 223.217 31.2207 223.223C30.4352 223.229 29.7926 222.725 29.7854 222.097L29.0386 156.85C29.0314 156.222 29.6624 155.708 30.4479 155.703Z" fill="black"/>
<path fill-rule="evenodd" clip-rule="evenodd" d="M38.9744 143.492C39.7104 143.484 40.3141 143.992 40.3229 144.626L41.2491 211.287C41.258 211.921 40.6685 212.441 39.9325 212.449C39.1966 212.456 38.5928 211.948 38.584 211.314L37.6578 144.654C37.649 144.019 38.2385 143.499 38.9744 143.492Z" fill="black"/>
<path fill-rule="evenodd" clip-rule="evenodd" d="M21.4992 167.914C22.1025 167.907 22.5971 168.413 22.6038 169.045L23.2921 233.56C23.2988 234.191 22.8152 234.709 22.2119 234.716C21.6086 234.723 21.114 234.217 21.1073 233.585L20.419 169.07C20.4123 168.439 20.8959 167.921 21.4992 167.914Z" fill="black"/>
<path fill-rule="evenodd" clip-rule="evenodd" d="M52.8604 170.926C51.0141 171.685 49.4807 172.777 48.5907 173.892L5.37978 227.901C4.40094 229.125 2.61042 229.327 1.38052 228.354C0.150631 227.38 -0.0528927 225.599 0.925941 224.375L44.1342 170.369L44.1356 170.367M44.1356 170.367C45.7786 168.311 48.2007 166.715 50.6869 165.693C53.1739 164.671 56.0222 164.102 58.6427 164.403L208.969 181.701C210.53 181.881 211.65 183.286 211.469 184.839C211.289 186.393 209.876 187.506 208.315 187.326L57.9896 170.028C56.5687 169.865 54.7064 170.168 52.8604 170.926" fill="black"/>
<path fill-rule="evenodd" clip-rule="evenodd" d="M208.568 195.928C210.603 195.955 212.232 197.637 212.206 199.684L211.684 240.047C211.684 240.053 211.684 240.06 211.684 240.066C211.676 241.525 211.367 242.967 210.777 244.299C210.184 245.638 209.32 246.838 208.241 247.822C207.162 248.807 205.891 249.555 204.509 250.018C203.132 250.479 201.675 250.648 200.231 250.515C200.225 250.514 200.219 250.513 200.213 250.513L58.1184 238.307L58.1174 238.307C56.8195 238.195 55.0116 238.495 53.1518 239.234C51.2925 239.973 49.7665 240.998 48.8911 241.974L33.3066 259.351C31.9429 260.872 29.612 260.992 28.1003 259.621C26.5887 258.249 26.4688 255.904 27.8326 254.383L43.4168 237.006C45.258 234.953 47.8522 233.366 50.4432 232.336C53.0339 231.307 56.0068 230.682 58.7467 230.918L200.886 243.128L200.901 243.129C201.333 243.17 201.768 243.12 202.179 242.982C202.589 242.844 202.967 242.622 203.288 242.329C203.609 242.036 203.866 241.68 204.042 241.282C204.218 240.884 204.31 240.453 204.312 240.017L204.312 240.001L204.834 199.588C204.86 197.54 206.532 195.902 208.568 195.928Z" fill="black"/>
<path fill-rule="evenodd" clip-rule="evenodd" d="M177.094 41.5486C179.798 41.965 181.665 44.5794 181.264 47.3882L168.177 139.104C167.777 141.912 165.26 143.852 162.556 143.435C159.853 143.019 157.986 140.404 158.387 137.596L171.474 45.8804C171.874 43.0716 174.391 41.1322 177.094 41.5486Z" fill="black"/>
<path fill-rule="evenodd" clip-rule="evenodd" d="M141.12 13.4787C143.958 13.4326 146.295 15.6954 146.341 18.5329L148.276 137.551C148.323 140.388 146.06 142.726 143.223 142.772C140.385 142.818 138.048 140.556 138.002 137.718L136.067 18.7C136.02 15.8625 138.283 13.5249 141.12 13.4787Z" fill="black"/>
<path fill-rule="evenodd" clip-rule="evenodd" d="M153.591 59.7578C156.191 60.7236 157.538 63.6727 156.598 66.3447L131.416 137.94C130.476 140.612 127.606 141.995 125.006 141.029C122.406 140.063 121.06 137.114 122 134.442L147.181 62.8473C148.121 60.1752 150.991 58.792 153.591 59.7578Z" fill="black"/>
<path fill-rule="evenodd" clip-rule="evenodd" d="M97.4965 84.694C100.087 84.1485 102.627 85.8151 103.171 88.4165L112.259 131.944C112.803 134.545 111.143 137.096 108.552 137.642C105.962 138.187 103.422 136.521 102.878 133.919L93.7895 90.3916C93.2463 87.7903 94.906 85.2394 97.4965 84.694Z" fill="black"/>
<path fill-rule="evenodd" clip-rule="evenodd" d="M77.1709 0.54895C79.9448 0.549208 82.1932 2.82351 82.193 5.62874L82.1818 128.357C82.1816 131.162 79.9327 133.436 77.1588 133.435C74.3849 133.435 72.1365 131.161 72.1367 128.356L72.1479 5.62781C72.1481 2.82257 74.397 0.548692 77.1709 0.54895Z" fill="black"/>
<path fill-rule="evenodd" clip-rule="evenodd" d="M12.5749 66.1658C15.3411 65.2891 18.3067 66.7821 19.1988 69.5004L43.1494 142.478C44.0416 145.196 42.5224 148.11 39.7562 148.987C36.9901 149.864 34.0245 148.371 33.1324 145.653L9.18174 72.6752C8.2896 69.9569 9.80878 67.0426 12.5749 66.1658Z" fill="black"/>
<path fill-rule="evenodd" clip-rule="evenodd" d="M59.79 37.2525C62.5112 36.7904 65.0848 38.6636 65.5384 41.4365L79.9689 129.663C80.4224 132.436 78.5841 135.058 75.8629 135.52C73.1416 135.982 70.568 134.109 70.1145 131.336L55.684 43.1101C55.2304 40.3372 57.0688 37.7147 59.79 37.2525Z" fill="black"/>
</svg>
