<svg fill="#fff" width="150" height="150" viewBox="0 0 150 150" xmlns="http://www.w3.org/2000/svg">
<path d="M49.9997 67.25H46.3747C41.4278 67.0712 36.497 67.911 31.8882 69.7172C27.2795 71.5235 23.0911 74.2576 19.583 77.75L18.583 78.9167V113.417H35.583V93.8333L37.8747 91.25L38.9163 90.0417C44.341 84.4688 51.0946 80.3679 58.5413 78.125C54.813 75.2881 51.8725 71.5443 49.9997 67.25Z"/>
<path d="M130.584 77.625C127.076 74.1326 122.887 71.3985 118.278 69.5922C113.67 67.786 108.739 66.9462 103.792 67.125C102.275 67.1293 100.759 67.2128 99.2503 67.375C97.3424 71.4038 94.4822 74.9075 90.917 77.5833C98.8669 79.7827 106.069 84.1037 111.75 90.0833L112.792 91.25L115.042 93.8333V113.458H131.459V78.7917L130.584 77.625Z"/>
<path d="M46.2504 59.125H47.5421C46.942 53.9718 47.8462 48.7551 50.1456 44.1045C52.445 39.4539 56.0413 35.5683 60.5004 32.9166C58.884 30.4473 56.654 28.44 54.0288 27.0914C51.4036 25.7428 48.4731 25.0992 45.5243 25.2234C42.5756 25.3477 39.7097 26.2356 37.2072 27.8003C34.7047 29.365 32.6515 31.5527 31.2486 34.1494C29.8457 36.746 29.1412 39.6624 29.2041 42.6131C29.267 45.5638 30.0951 48.4476 31.6073 50.9821C33.1196 53.5166 35.2642 55.6148 37.8311 57.0715C40.3979 58.5281 43.2991 59.2931 46.2504 59.2916V59.125Z"/>
<path d="M101.791 56C101.842 56.9577 101.842 57.9173 101.791 58.875C102.591 59.0018 103.399 59.0714 104.208 59.0833H105C107.938 58.9266 110.786 58.0118 113.266 56.4278C115.746 54.8439 117.773 52.6448 119.151 50.0446C120.528 47.4445 121.209 44.532 121.127 41.5905C121.045 38.6491 120.203 35.7791 118.682 33.2598C117.162 30.7405 115.015 28.6579 112.451 27.2147C109.886 25.7715 106.992 25.0168 104.049 25.0242C101.107 25.0316 98.2163 25.8008 95.6593 27.2569C93.1023 28.713 90.9658 30.8064 89.458 33.3333C93.2292 35.7956 96.3302 39.1554 98.4827 43.1115C100.635 47.0676 101.772 51.4962 101.791 56Z"/>
<path d="M74.458 74.6667C84.7443 74.6667 93.083 66.328 93.083 56.0417C93.083 45.7554 84.7443 37.4167 74.458 37.4167C64.1717 37.4167 55.833 45.7554 55.833 56.0417C55.833 66.328 64.1717 74.6667 74.458 74.6667Z"/>
<path d="M75.4587 84.5834C70.0172 84.3637 64.5875 85.2471 59.4963 87.1804C54.4051 89.1138 49.7577 92.0571 45.8337 95.8334L44.792 97V123.375C44.8083 124.234 44.9936 125.082 45.3375 125.869C45.6813 126.657 46.177 127.369 46.796 127.964C47.4151 128.56 48.1456 129.028 48.9456 129.342C49.7456 129.655 50.5996 129.808 51.4587 129.792H99.3337C100.193 129.808 101.047 129.655 101.847 129.342C102.647 129.028 103.377 128.56 103.996 127.964C104.615 127.369 105.111 126.657 105.455 125.869C105.799 125.082 105.984 124.234 106 123.375V97.0834L105 95.8334C101.102 92.0455 96.4704 89.0939 91.3906 87.1594C86.3107 85.2249 80.8893 84.3483 75.4587 84.5834Z"/>
</svg>
