<svg fill="#fff" width="150" height="150" viewBox="0 0 150 150" xmlns="http://www.w3.org/2000/svg">
<path d="M75 12.5C40.5 12.5 12.5 40.5 12.5 75C12.5 109.5 40.5 137.5 75 137.5C109.5 137.5 137.5 109.5 137.5 75C137.5 40.5 109.5 12.5 75 12.5ZM81.25 33.125L89.6875 27.1875C100.993 30.6909 110.692 38.0868 117.063 48.0625L114.625 56.4375L106.188 59.3125L81.25 41.875V33.125ZM60.3125 27.1875L68.75 33.125V41.875L43.8125 59.3125L35.375 56.4375L32.9375 48.0625C39.345 38.121 49.0299 30.7358 60.3125 27.1875ZM44.25 106.938L37.125 107.562C29.2903 98.5248 24.9843 86.9609 25 75C25 74.25 25.0625 73.5625 25.125 72.8125L31.375 68.25L40 71.25L49.125 98.375L44.25 106.938ZM90.625 122.438C85.6875 124.062 80.4375 125 75 125C69.5625 125 64.3125 124.062 59.375 122.438L55.0625 113.125L59.0625 106.25H91L95 113.188L90.625 122.438ZM89.1875 93.75H60.8125L52.375 68.625L75 52.75L97.6875 68.625L89.1875 93.75ZM112.875 107.562L105.75 106.938L100.812 98.375L109.938 71.25L118.625 68.3125L124.875 72.875C124.938 73.5625 125 74.25 125 75C125 87.4375 120.438 98.8125 112.875 107.562Z"/>
</svg>
