<svg fill="#fff" width="150" height="150" viewBox="0 0 150 150" xmlns="http://www.w3.org/2000/svg">
<path d="M31.25 82.375V99.9375C31.25 104.5 33.75 108.75 37.75 110.938L69 128C72.75 130.062 77.25 130.062 81 128L112.25 110.938C116.25 108.75 118.75 104.5 118.75 99.9375V82.375L81 103C77.25 105.063 72.75 105.063 69 103L31.25 82.375ZM69 22L16.3125 50.75C12 53.125 12 59.375 16.3125 61.75L69 90.5C72.75 92.5625 77.25 92.5625 81 90.5L131.25 63.0625V100C131.25 103.438 134.062 106.25 137.5 106.25C140.937 106.25 143.75 103.438 143.75 100V59.9375C143.75 57.625 142.5 55.5625 140.5 54.4375L81 22C79.1534 21.0152 77.0928 20.5 75 20.5C72.9072 20.5 70.8466 21.0152 69 22Z"/>
</svg>
