<svg width="398" height="477" viewBox="0 0 398 477" fill="none" xmlns="http://www.w3.org/2000/svg">
<path d="M54.4819 343.125C58.9939 343.125 61.2499 345.044 61.2499 348.883C61.2499 352.796 58.9939 354.753 54.4819 354.753H6.42955C4.47436 354.753 2.89518 354.189 1.69199 353.06C0.563995 351.855 0 350.35 0 348.544C0 346.738 0.601595 345.006 1.80478 343.351L42.1868 286.791H6.88074C2.36878 286.791 0.112799 284.872 0.112799 281.034C0.112799 277.12 2.36878 275.163 6.88074 275.163H53.4668C55.4219 275.163 56.9635 275.765 58.0915 276.969C59.2947 278.098 59.8963 279.528 59.8963 281.259C59.8963 282.99 59.2571 284.721 57.9787 286.452L17.5967 343.125H54.4819ZM30.0045 268.954C28.275 268.954 26.5454 268.277 24.8158 266.922L15.4535 258.229C14.3255 257.175 13.7615 256.009 13.7615 254.729C13.7615 253.6 14.1751 252.622 15.0023 251.794C15.8295 250.891 16.8447 250.439 18.0478 250.439C19.3262 250.439 20.4918 250.966 21.5446 252.02L30.0045 260.713L38.4645 252.02C39.5173 250.966 40.6829 250.439 41.9612 250.439C43.1644 250.439 44.1796 250.891 45.0068 251.794C45.9092 252.622 46.3604 253.6 46.3604 254.729C46.3604 255.934 45.7588 257.1 44.5556 258.229L35.1933 266.922C33.6141 268.277 31.8845 268.954 30.0045 268.954Z" fill="black"/>
<path d="M93.9387 298.193C101.609 298.193 107.287 300.113 110.971 303.951C114.731 307.714 116.611 313.472 116.611 321.224V348.77C116.611 350.802 116.01 352.42 114.807 353.624C113.603 354.753 111.949 355.317 109.843 355.317C107.888 355.317 106.271 354.715 104.993 353.511C103.79 352.307 103.188 350.726 103.188 348.77V346.286C101.91 349.221 99.8794 351.517 97.0971 353.172C94.3899 354.828 91.2315 355.656 87.622 355.656C83.9372 355.656 80.5908 354.903 77.5828 353.398C74.5749 351.893 72.2061 349.823 70.4765 347.189C68.7469 344.555 67.8821 341.62 67.8821 338.383C67.8821 334.319 68.8973 331.121 70.9277 328.787C73.0333 326.454 76.4172 324.761 81.0796 323.707C85.742 322.654 92.1715 322.127 100.368 322.127H103.188V319.53C103.188 315.842 102.399 313.171 100.819 311.515C99.2403 309.784 96.6835 308.918 93.1491 308.918C90.9683 308.918 88.7499 309.257 86.494 309.934C84.238 310.536 81.5684 311.44 78.4852 312.644C76.53 313.622 75.1013 314.111 74.1989 314.111C72.8453 314.111 71.7173 313.622 70.8149 312.644C69.9877 311.665 69.5741 310.386 69.5741 308.805C69.5741 307.526 69.8749 306.435 70.4765 305.531C71.1533 304.553 72.2437 303.65 73.7477 302.822C76.3796 301.392 79.5004 300.263 83.11 299.435C86.7948 298.607 90.4043 298.193 93.9387 298.193ZM90.4419 345.496C94.2019 345.496 97.2475 344.254 99.5786 341.77C101.985 339.211 103.188 335.937 103.188 331.948V329.578H101.158C96.1195 329.578 92.2091 329.804 89.4267 330.255C86.6444 330.707 84.6516 331.497 83.4484 332.626C82.2452 333.755 81.6436 335.298 81.6436 337.254C81.6436 339.663 82.4708 341.657 84.1252 343.238C85.8548 344.743 87.9603 345.496 90.4419 345.496Z" fill="black"/>
<path d="M159.592 344.931C163.352 345.157 165.232 346.85 165.232 350.011C165.232 351.818 164.48 353.21 162.976 354.188C161.547 355.092 159.479 355.468 156.772 355.317L153.727 355.092C141.093 354.189 134.776 347.415 134.776 334.771V310.16H129.136C127.106 310.16 125.527 309.708 124.399 308.805C123.346 307.902 122.82 306.585 122.82 304.854C122.82 303.123 123.346 301.806 124.399 300.903C125.527 300 127.106 299.548 129.136 299.548H134.776V289.162C134.776 287.13 135.416 285.512 136.694 284.307C137.972 283.103 139.702 282.501 141.883 282.501C143.988 282.501 145.68 283.103 146.959 284.307C148.237 285.512 148.876 287.13 148.876 289.162V299.548H158.464C160.495 299.548 162.036 300 163.089 300.903C164.217 301.806 164.781 303.123 164.781 304.854C164.781 306.585 164.217 307.902 163.089 308.805C162.036 309.708 160.495 310.16 158.464 310.16H148.876V335.787C148.876 341.356 151.433 344.329 156.547 344.705L159.592 344.931Z" fill="black"/>
<path d="M216.233 339.625C217.512 339.625 218.527 340.114 219.279 341.093C220.106 342.071 220.52 343.388 220.52 345.044C220.52 347.377 219.128 349.334 216.346 350.915C213.789 352.345 210.894 353.511 207.66 354.414C204.427 355.242 201.344 355.656 198.411 355.656C189.537 355.656 182.506 353.097 177.317 347.979C172.129 342.862 169.534 335.862 169.534 326.981C169.534 321.337 170.662 316.332 172.918 311.966C175.174 307.601 178.333 304.214 182.393 301.806C186.529 299.398 191.192 298.193 196.381 298.193C201.344 298.193 205.668 299.285 209.352 301.467C213.037 303.65 215.895 306.736 217.925 310.725C219.956 314.713 220.971 319.417 220.971 324.836C220.971 328.072 219.542 329.691 216.684 329.691H183.409C183.86 334.884 185.326 338.722 187.808 341.206C190.289 343.614 193.899 344.818 198.636 344.818C201.043 344.818 203.148 344.517 204.953 343.915C206.833 343.313 208.939 342.485 211.27 341.432C213.526 340.227 215.18 339.625 216.233 339.625ZM196.719 308.128C192.884 308.128 189.801 309.332 187.469 311.741C185.213 314.149 183.86 317.611 183.409 322.127H208.901C208.751 317.536 207.623 314.074 205.517 311.741C203.412 309.332 200.479 308.128 196.719 308.128Z" fill="black"/>
<path d="M256.982 355.656C251.492 355.656 246.642 354.49 242.431 352.156C238.295 349.823 235.099 346.512 232.843 342.222C230.587 337.932 229.459 332.927 229.459 327.207C229.459 321.487 230.624 316.444 232.956 312.079C235.362 307.639 238.708 304.214 242.995 301.806C247.281 299.398 252.207 298.193 257.771 298.193C260.704 298.193 263.637 298.607 266.57 299.435C269.578 300.263 272.21 301.392 274.466 302.822C276.872 304.403 278.075 306.397 278.075 308.805C278.075 310.461 277.662 311.816 276.834 312.87C276.082 313.848 275.067 314.337 273.789 314.337C272.962 314.337 272.097 314.149 271.194 313.773C270.292 313.396 269.39 312.945 268.487 312.418C266.833 311.44 265.254 310.687 263.75 310.16C262.246 309.558 260.516 309.257 258.561 309.257C253.899 309.257 250.289 310.8 247.732 313.886C245.251 316.896 244.01 321.261 244.01 326.981C244.01 332.626 245.251 336.991 247.732 340.077C250.289 343.087 253.899 344.593 258.561 344.593C260.441 344.593 262.095 344.329 263.524 343.802C265.028 343.2 266.683 342.41 268.487 341.432C269.615 340.754 270.593 340.265 271.42 339.964C272.247 339.588 273.074 339.399 273.902 339.399C275.105 339.399 276.12 339.926 276.947 340.98C277.774 342.034 278.188 343.351 278.188 344.931C278.188 346.211 277.887 347.34 277.286 348.318C276.759 349.221 275.857 350.049 274.578 350.802C272.247 352.307 269.54 353.511 266.457 354.414C263.374 355.242 260.215 355.656 256.982 355.656Z" fill="black"/>
<path d="M336.65 343.802C338.154 345.232 338.906 346.85 338.906 348.657C338.906 350.388 338.266 351.931 336.988 353.285C335.785 354.64 334.356 355.317 332.702 355.317C331.047 355.317 329.506 354.64 328.077 353.285L301.682 329.352V348.657C301.682 350.839 301.005 352.495 299.652 353.624C298.298 354.753 296.606 355.317 294.576 355.317C292.545 355.317 290.853 354.753 289.5 353.624C288.221 352.495 287.582 350.839 287.582 348.657V281.259C287.582 279.077 288.221 277.421 289.5 276.292C290.853 275.163 292.545 274.599 294.576 274.599C296.606 274.599 298.298 275.163 299.652 276.292C301.005 277.421 301.682 279.077 301.682 281.259V323.707L325.821 300.564C327.175 299.209 328.716 298.532 330.446 298.532C332.175 298.532 333.679 299.172 334.958 300.451C336.236 301.731 336.875 303.236 336.875 304.967C336.875 306.698 336.161 308.279 334.732 309.708L317.023 326.191L336.65 343.802Z" fill="black"/>
<path d="M385.42 302.483C386.022 301.129 386.811 300.15 387.789 299.548C388.842 298.871 389.97 298.532 391.173 298.532C392.903 298.532 394.444 299.134 395.798 300.338C397.227 301.467 397.941 302.897 397.941 304.628C397.941 305.456 397.715 306.322 397.264 307.225L366.47 371.8C365.192 374.359 363.199 375.638 360.492 375.638C358.762 375.638 357.22 375.074 355.867 373.945C354.588 372.891 353.949 371.536 353.949 369.881C353.949 369.053 354.175 368.112 354.626 367.058L362.296 350.915L341.316 307.225C340.94 306.472 340.752 305.607 340.752 304.628C340.752 302.897 341.466 301.43 342.895 300.225C344.399 299.021 346.091 298.419 347.971 298.419C349.249 298.419 350.415 298.758 351.468 299.435C352.521 300.037 353.348 301.016 353.949 302.37L369.741 337.254L385.42 302.483ZM372.223 291.984C371.396 292.586 370.568 292.887 369.741 292.887C368.688 292.887 367.786 292.549 367.034 291.871C366.357 291.119 366.019 290.253 366.019 289.275C366.019 288.447 366.32 287.619 366.921 286.791L377.863 272.228C379.592 269.97 381.585 268.841 383.841 268.841C385.495 268.841 386.887 269.443 388.015 270.647C389.218 271.776 389.819 273.131 389.819 274.712C389.819 276.819 388.804 278.625 386.774 280.13L372.223 291.984Z" fill="black"/>
<path d="M115.623 399.567C121.639 399.567 126.227 401.373 129.385 404.986C132.618 408.523 134.235 414.281 134.235 422.259V450.03C134.235 452.213 133.558 453.906 132.205 455.111C130.927 456.24 129.235 456.804 127.129 456.804C125.099 456.804 123.407 456.24 122.053 455.111C120.775 453.906 120.135 452.213 120.135 450.03V422.259C120.135 418.119 119.383 415.184 117.879 413.453C116.451 411.647 114.232 410.743 111.224 410.743C107.54 410.743 104.607 412.023 102.426 414.582C100.245 417.066 99.1548 420.49 99.1548 424.855V450.03C99.1548 452.213 98.478 453.906 97.1244 455.111C95.846 456.24 94.1916 456.804 92.1612 456.804C90.1308 456.804 88.4389 456.24 87.0853 455.111C85.7317 453.906 85.0549 452.213 85.0549 450.03V422.259C85.0549 418.119 84.3029 415.184 82.7989 413.453C81.3701 411.647 79.1517 410.743 76.1438 410.743C72.459 410.743 69.5262 412.023 67.3454 414.582C65.2399 417.066 64.1871 420.49 64.1871 424.855V450.03C64.1871 452.213 63.5103 453.906 62.1567 455.111C60.8031 456.24 59.1111 456.804 57.0807 456.804C55.0503 456.804 53.3584 456.24 52.0048 455.111C50.7264 453.906 50.0872 452.213 50.0872 450.03V406.341C50.0872 404.233 50.764 402.615 52.1176 401.486C53.4712 400.357 55.1631 399.793 57.1935 399.793C59.1487 399.793 60.7279 400.357 61.9311 401.486C63.2095 402.54 63.8487 404.083 63.8487 406.115V408.824C65.5783 405.814 67.8718 403.518 70.7294 401.938C73.6622 400.357 77.0086 399.567 80.7685 399.567C89.0405 399.567 94.5676 403.029 97.35 409.953C99.0044 406.792 101.448 404.271 104.682 402.389C107.915 400.508 111.563 399.567 115.623 399.567Z" fill="black"/>
<path d="M172.479 399.567C180.15 399.567 185.827 401.486 189.512 405.325C193.272 409.088 195.152 414.845 195.152 422.597V450.143C195.152 452.175 194.55 453.794 193.347 454.998C192.144 456.127 190.49 456.691 188.384 456.691C186.429 456.691 184.812 456.089 183.534 454.885C182.331 453.681 181.729 452.1 181.729 450.143V447.66C180.451 450.595 178.42 452.89 175.638 454.546C172.931 456.202 169.772 457.03 166.163 457.03C162.478 457.03 159.132 456.277 156.124 454.772C153.116 453.267 150.747 451.197 149.017 448.563C147.288 445.929 146.423 442.993 146.423 439.757C146.423 435.693 147.438 432.494 149.468 430.161C151.574 427.828 154.958 426.135 159.62 425.081C164.283 424.027 170.712 423.5 178.909 423.5H181.729V420.904C181.729 417.216 180.939 414.544 179.36 412.888C177.781 411.157 175.224 410.292 171.69 410.292C169.509 410.292 167.291 410.631 165.035 411.308C162.779 411.91 160.109 412.813 157.026 414.017C155.071 414.996 153.642 415.485 152.74 415.485C151.386 415.485 150.258 414.996 149.356 414.017C148.528 413.039 148.115 411.76 148.115 410.179C148.115 408.9 148.416 407.808 149.017 406.905C149.694 405.927 150.784 405.024 152.288 404.196C154.92 402.766 158.041 401.637 161.651 400.809C165.336 399.981 168.945 399.567 172.479 399.567ZM168.983 446.869C172.743 446.869 175.788 445.628 178.119 443.144C180.526 440.585 181.729 437.311 181.729 433.322V430.951H179.699C174.66 430.951 170.75 431.177 167.967 431.629C165.185 432.08 163.192 432.871 161.989 434C160.786 435.128 160.184 436.671 160.184 438.628C160.184 441.037 161.012 443.031 162.666 444.611C164.396 446.117 166.501 446.869 168.983 446.869Z" fill="black"/>
<path d="M201.586 476.673C198.879 476.824 196.811 476.447 195.382 475.544C193.878 474.641 193.126 473.249 193.126 471.367C193.126 468.281 195.006 466.588 198.766 466.287L201.812 466.061C204.368 465.911 206.286 465.12 207.564 463.69C208.843 462.261 209.482 460.078 209.482 457.143V406.454C209.482 404.271 210.121 402.615 211.4 401.486C212.753 400.357 214.445 399.793 216.475 399.793C218.506 399.793 220.198 400.357 221.551 401.486C222.905 402.615 223.582 404.271 223.582 406.454V456.127C223.582 468.771 217.265 475.544 204.632 476.447L201.586 476.673ZM216.363 389.745C213.806 389.745 211.776 389.068 210.272 387.713C208.768 386.283 208.016 384.439 208.016 382.181C208.016 379.924 208.768 378.117 210.272 376.763C211.776 375.408 213.806 374.73 216.363 374.73C218.844 374.73 220.837 375.408 222.341 376.763C223.92 378.117 224.71 379.924 224.71 382.181C224.71 384.439 223.958 386.283 222.454 387.713C220.95 389.068 218.919 389.745 216.363 389.745Z" fill="black"/>
<path d="M262.036 399.567C269.706 399.567 275.384 401.486 279.068 405.325C282.828 409.088 284.708 414.845 284.708 422.597V450.143C284.708 452.175 284.107 453.794 282.904 454.998C281.7 456.127 280.046 456.691 277.94 456.691C275.985 456.691 274.368 456.089 273.09 454.885C271.887 453.681 271.285 452.1 271.285 450.143V447.66C270.007 450.595 267.976 452.89 265.194 454.546C262.487 456.202 259.329 457.03 255.719 457.03C252.034 457.03 248.688 456.277 245.68 454.772C242.672 453.267 240.303 451.197 238.573 448.563C236.844 445.929 235.979 442.993 235.979 439.757C235.979 435.693 236.994 432.494 239.025 430.161C241.13 427.828 244.514 426.135 249.177 425.081C253.839 424.027 260.269 423.5 268.465 423.5H271.285V420.904C271.285 417.216 270.496 414.544 268.916 412.888C267.337 411.157 264.781 410.292 261.246 410.292C259.065 410.292 256.847 410.631 254.591 411.308C252.335 411.91 249.665 412.813 246.582 414.017C244.627 414.996 243.198 415.485 242.296 415.485C240.942 415.485 239.814 414.996 238.912 414.017C238.085 413.039 237.671 411.76 237.671 410.179C237.671 408.9 237.972 407.808 238.573 406.905C239.25 405.927 240.341 405.024 241.845 404.196C244.477 402.766 247.597 401.637 251.207 400.809C254.892 399.981 258.501 399.567 262.036 399.567ZM258.539 446.869C262.299 446.869 265.344 445.628 267.676 443.144C270.082 440.585 271.285 437.311 271.285 433.322V430.951H269.255C264.216 430.951 260.306 431.177 257.524 431.629C254.741 432.08 252.749 432.871 251.545 434C250.342 435.128 249.741 436.671 249.741 438.628C249.741 441.037 250.568 443.031 252.222 444.611C253.952 446.117 256.057 446.869 258.539 446.869ZM264.856 393.358C264.029 393.96 263.201 394.261 262.374 394.261C261.321 394.261 260.419 393.922 259.667 393.245C258.99 392.492 258.652 391.627 258.652 390.648C258.652 389.821 258.953 388.993 259.554 388.165L270.496 373.602C272.225 371.344 274.218 370.215 276.474 370.215C278.128 370.215 279.52 370.817 280.648 372.021C281.851 373.15 282.452 374.505 282.452 376.085C282.452 378.193 281.437 379.999 279.407 381.504L264.856 393.358Z" fill="black"/>
<path d="M348.106 445.176C349.61 446.606 350.362 448.224 350.362 450.03C350.362 451.761 349.723 453.304 348.444 454.659C347.241 456.014 345.812 456.691 344.158 456.691C342.503 456.691 340.962 456.014 339.533 454.659L313.138 430.726V450.03C313.138 452.213 312.461 453.869 311.108 454.998C309.754 456.127 308.062 456.691 306.032 456.691C304.001 456.691 302.309 456.127 300.956 454.998C299.677 453.869 299.038 452.213 299.038 450.03V382.633C299.038 380.45 299.677 378.795 300.956 377.666C302.309 376.537 304.001 375.972 306.032 375.972C308.062 375.972 309.754 376.537 311.108 377.666C312.461 378.795 313.138 380.45 313.138 382.633V425.081L337.277 401.938C338.631 400.583 340.172 399.906 341.902 399.906C343.631 399.906 345.135 400.545 346.414 401.825C347.692 403.104 348.331 404.61 348.331 406.341C348.331 408.072 347.617 409.652 346.188 411.082L328.479 427.565L348.106 445.176Z" fill="black"/>
<path fill-rule="evenodd" clip-rule="evenodd" d="M134.476 126.531C134.476 126.531 134.477 126.531 134.478 126.531L276.856 145.084L276.904 145.091C279.753 145.54 282.355 146.975 284.257 149.148C286.16 151.322 287.243 154.095 287.318 156.986L287.319 157.034V208.183C287.347 209.637 287.064 211.08 286.487 212.414C285.904 213.764 285.034 214.97 283.94 215.949C282.845 216.928 281.55 217.657 280.147 218.084C278.759 218.506 277.297 218.623 275.86 218.429L133.587 201.943L133.586 201.943C132.355 201.8 130.639 202.062 128.881 202.782C127.123 203.503 125.714 204.521 124.932 205.492L86.5976 253.1C85.7943 254.097 84.845 255.024 83.7392 255.647C82.6303 256.272 80.9971 256.773 79.2364 256.149C77.476 255.524 76.5199 254.105 76.0487 252.921C75.5787 251.739 75.4209 250.42 75.4209 249.137V200.836C75.4209 198.286 76.0259 195.365 76.9011 192.717C77.7765 190.068 79.0301 187.366 80.543 185.321L119.342 132.963C119.343 132.963 119.343 132.962 119.343 132.962C121.037 130.675 123.552 128.943 126.114 127.854C128.675 126.766 131.663 126.161 134.476 126.531ZM128.986 134.657C127.308 135.37 125.981 136.388 125.256 137.367L86.4575 189.724C85.5567 190.941 84.612 192.864 83.8925 195.041C83.1728 197.219 82.7863 199.324 82.7863 200.836V246.075L119.202 200.851C120.963 198.663 123.52 196.999 126.095 195.944C128.67 194.889 131.654 194.282 134.434 194.605L276.789 211.1L276.833 211.106C277.227 211.162 277.628 211.13 278.009 211.014C278.39 210.899 278.741 210.701 279.038 210.435C279.335 210.17 279.571 209.842 279.729 209.476C279.888 209.11 279.964 208.714 279.955 208.315L279.953 208.269V157.136C279.914 155.987 279.48 154.887 278.723 154.023C277.966 153.158 276.934 152.584 275.804 152.396L133.52 133.855C132.316 133.697 130.664 133.944 128.986 134.657Z" fill="black"/>
<path fill-rule="evenodd" clip-rule="evenodd" d="M125.839 128.577C127.35 128.577 128.576 129.87 128.576 131.465V179.119C128.576 183.239 128.576 190.001 128.532 194.147C128.532 194.15 128.532 194.152 128.532 194.154L128.302 234.171C128.293 235.766 127.06 237.051 125.549 237.041C124.038 237.031 122.82 235.731 122.829 234.136L123.059 194.097L123.059 194.09C123.103 189.981 123.103 183.243 123.103 179.107V131.465C123.103 129.87 124.328 128.577 125.839 128.577Z" fill="black"/>
<path fill-rule="evenodd" clip-rule="evenodd" d="M158.597 131.45C159.711 131.446 160.618 132.325 160.622 133.414L160.899 199.145C160.903 200.235 160.004 201.121 158.89 201.126C157.777 201.13 156.87 200.251 156.865 199.162L156.589 133.431C156.584 132.341 157.483 131.455 158.597 131.45Z" fill="black"/>
<path fill-rule="evenodd" clip-rule="evenodd" d="M189.752 135.76C191.028 135.744 192.076 136.619 192.095 137.713L193.223 204.861C193.241 205.956 192.222 206.856 190.947 206.872C189.672 206.888 188.623 206.013 188.605 204.919L187.477 137.77C187.458 136.676 188.477 135.776 189.752 135.76Z" fill="black"/>
<path fill-rule="evenodd" clip-rule="evenodd" d="M220.455 138.633C221.623 138.621 222.58 139.504 222.594 140.605L223.391 207.728C223.404 208.829 222.468 209.733 221.3 209.745C220.132 209.757 219.174 208.874 219.161 207.772L218.363 140.65C218.35 139.548 219.287 138.645 220.455 138.633Z" fill="black"/>
<path fill-rule="evenodd" clip-rule="evenodd" d="M250.552 143.662C251.693 143.636 252.64 144.495 252.667 145.58L254.279 211.327C254.306 212.411 253.402 213.311 252.261 213.336C251.119 213.361 250.173 212.503 250.146 211.418L248.534 145.671C248.507 144.587 249.411 143.687 250.552 143.662Z" fill="black"/>
<path fill-rule="evenodd" clip-rule="evenodd" d="M87.2737 180.295C87.8688 180.295 88.3512 180.802 88.3512 181.428V245.246C88.3512 245.872 87.8688 246.379 87.2737 246.379C86.6787 246.379 86.1963 245.872 86.1963 245.246V181.428C86.1963 180.802 86.6787 180.295 87.2737 180.295Z" fill="black"/>
<path fill-rule="evenodd" clip-rule="evenodd" d="M105.563 155.873C106.348 155.867 106.991 156.372 106.998 157L107.745 222.246C107.752 222.874 107.121 223.388 106.335 223.394C105.55 223.399 104.907 222.895 104.9 222.267L104.153 157.021C104.146 156.393 104.777 155.879 105.563 155.873Z" fill="black"/>
<path fill-rule="evenodd" clip-rule="evenodd" d="M114.089 143.661C114.825 143.654 115.429 144.156 115.438 144.784L116.364 210.75C116.373 211.378 115.783 211.893 115.047 211.9C114.311 211.908 113.708 211.405 113.699 210.777L112.773 144.811C112.764 144.184 113.353 143.669 114.089 143.661Z" fill="black"/>
<path fill-rule="evenodd" clip-rule="evenodd" d="M96.6135 168.084C97.2168 168.077 97.7114 168.578 97.7181 169.203L98.4064 233.024C98.4131 233.649 97.9295 234.161 97.3261 234.168C96.7228 234.175 96.2283 233.674 96.2215 233.049L95.5333 169.228C95.5265 168.603 96.0102 168.091 96.6135 168.084Z" fill="black"/>
<path fill-rule="evenodd" clip-rule="evenodd" d="M127.975 171.096C126.128 171.855 124.595 172.947 123.705 174.062L123.704 174.063L80.494 228.071C79.5152 229.295 77.7247 229.497 76.4948 228.524C75.2649 227.55 75.0614 225.769 76.0402 224.545L119.248 170.539C119.249 170.538 119.249 170.538 119.25 170.537M119.25 170.537C120.893 168.481 123.315 166.884 125.801 165.863C128.288 164.841 131.136 164.272 133.757 164.573L284.083 181.871C285.645 182.051 286.764 183.456 286.583 185.009C286.403 186.562 284.991 187.676 283.429 187.496L133.104 170.198C133.104 170.198 133.104 170.198 133.104 170.198C131.683 170.035 129.821 170.337 127.975 171.096" fill="black"/>
<path fill-rule="evenodd" clip-rule="evenodd" d="M283.683 195.379C285.719 195.406 287.348 197.087 287.321 199.135L286.8 239.498C286.8 239.504 286.8 239.511 286.8 239.517C286.791 240.976 286.482 242.417 285.892 243.75C285.299 245.089 284.436 246.289 283.357 247.273C282.278 248.258 281.007 249.006 279.625 249.469C278.248 249.93 276.791 250.099 275.346 249.965C275.341 249.965 275.335 249.964 275.329 249.964L133.234 237.758L133.233 237.758C131.935 237.646 130.127 237.946 128.268 238.685C126.408 239.424 124.882 240.449 124.007 241.425L108.422 258.802C107.059 260.323 104.728 260.443 103.216 259.071C101.704 257.7 101.585 255.355 102.948 253.834L118.533 236.457C118.533 236.457 118.533 236.457 118.533 236.457C120.374 234.404 122.968 232.817 125.559 231.787C128.15 230.758 131.123 230.133 133.862 230.369L276.002 242.579L276.017 242.58C276.448 242.621 276.883 242.57 277.294 242.433C277.705 242.295 278.083 242.073 278.404 241.78C278.725 241.487 278.981 241.131 279.158 240.733C279.334 240.335 279.426 239.904 279.427 239.468L279.428 239.452L279.949 199.039C279.976 196.991 281.648 195.353 283.683 195.379Z" fill="black"/>
<path fill-rule="evenodd" clip-rule="evenodd" d="M252.211 41C254.915 41.4193 256.782 44.0522 256.381 46.8808L243.294 139.242C242.893 142.071 240.377 144.024 237.673 143.604C234.969 143.185 233.103 140.552 233.503 137.724L246.59 45.3624C246.991 42.5338 249.508 40.5807 252.211 41Z" fill="black"/>
<path fill-rule="evenodd" clip-rule="evenodd" d="M216.234 13.6491C219.071 13.6032 221.409 15.8535 221.455 18.6753L223.39 137.032C223.436 139.854 221.174 142.178 218.336 142.224C215.499 142.27 213.162 140.02 213.116 137.198L211.18 18.8414C211.134 16.0197 213.397 13.695 216.234 13.6491Z" fill="black"/>
<path fill-rule="evenodd" clip-rule="evenodd" d="M228.705 59.2091C231.306 60.1749 232.652 63.1239 231.712 65.796L206.53 137.391C205.59 140.063 202.721 141.446 200.12 140.48C197.52 139.515 196.174 136.566 197.114 133.893L222.296 62.2986C223.235 59.6265 226.105 58.2433 228.705 59.2091Z" fill="black"/>
<path fill-rule="evenodd" clip-rule="evenodd" d="M172.611 84.8641C175.201 84.3187 177.742 85.9853 178.285 88.5866L187.374 132.114C187.917 134.716 186.257 137.266 183.667 137.812C181.076 138.357 178.536 136.691 177.993 134.089L168.904 90.5618C168.361 87.9605 170.02 85.4096 172.611 84.8641Z" fill="black"/>
<path fill-rule="evenodd" clip-rule="evenodd" d="M152.286 2.20389e-08C155.06 0.000259225 157.308 2.28685 157.308 5.10725L157.297 128.498C157.297 131.319 155.048 133.605 152.274 133.605C149.5 133.604 147.252 131.318 147.252 128.497L147.263 5.10631C147.263 2.28591 149.512 -0.000259181 152.286 2.20389e-08Z" fill="black"/>
<path fill-rule="evenodd" clip-rule="evenodd" d="M87.6897 65.6173C90.4558 64.7405 93.4214 66.2335 94.3136 68.9518L118.264 141.929C119.156 144.647 117.637 147.562 114.871 148.439C112.105 149.315 109.139 147.822 108.247 145.104L84.2965 72.1267C83.4043 69.4083 84.9235 66.494 87.6897 65.6173Z" fill="black"/>
<path fill-rule="evenodd" clip-rule="evenodd" d="M134.905 36.7043C137.626 36.2388 140.2 38.1257 140.654 40.9188L155.084 129.789C155.538 132.582 153.699 135.224 150.978 135.689C148.257 136.155 145.683 134.268 145.23 131.475L130.799 42.6046C130.346 39.8115 132.184 37.1699 134.905 36.7043Z" fill="black"/>
</svg>
