<svg fill="#fff" width="150" height="150" viewBox="0 0 150 150" xmlns="http://www.w3.org/2000/svg">
<g clip-path="url(#clip0)">
<path d="M97.5347 11.3596C97.2907 11.4037 97.0498 11.4634 96.8135 11.5385H5.76929C5.58862 11.53 5.40765 11.53 5.22698 11.5385C3.79273 11.6739 2.46104 12.341 1.49377 13.4086C0.526512 14.4762 -0.00632088 15.8671 5.65935e-05 17.3077V109.437C5.65935e-05 123.081 7.60967 131.463 14.7866 135.035C21.9577 138.606 28.8462 138.462 28.8462 138.462H121.696C121.756 138.462 121.815 138.462 121.875 138.462C122.885 138.462 128.66 138.312 135.219 135.035C142.062 131.613 149.221 123.733 149.815 111.237C149.819 111.117 149.819 110.998 149.815 110.879C149.827 110.752 149.994 110.648 150 110.515C150.023 110.216 150.023 109.915 150 109.615C150.009 109.435 150.009 109.254 150 109.073V46.3327C150.001 46.2731 150.001 46.2135 150 46.1539C150 46.1539 149.977 42.1039 147.837 37.8577C145.892 34.0096 141.219 29.7808 134.677 29.0308C134.042 28.792 133.37 28.667 132.692 28.6615H103.846V18.3865C103.88 18.0277 103.88 17.6665 103.846 17.3077C103.861 17.0675 103.861 16.8267 103.846 16.5865C103.85 16.4654 103.85 16.3442 103.846 16.2231C103.847 16.1654 103.847 16.1077 103.846 16.05C103.791 15.9268 103.731 15.8056 103.667 15.6865C103.668 15.6269 103.668 15.5673 103.667 15.5077C103.615 15.324 103.553 15.143 103.483 14.9654C103.374 14.778 103.254 14.597 103.125 14.4231C102.972 14.1072 102.791 13.806 102.583 13.5231C102.411 13.392 102.232 13.2706 102.046 13.1596C101.828 12.8984 101.586 12.6571 101.325 12.4385C101.264 12.4375 101.202 12.4375 101.14 12.4385C100.544 12.0158 99.8723 11.7104 99.1616 11.5385C98.6305 11.4018 98.0827 11.3416 97.5347 11.3596ZM11.5385 23.0769H92.3077V33.1731C92.1477 33.9457 92.1477 34.7428 92.3077 35.5154V109.442C92.3077 116.827 94.65 122.567 97.8981 126.929H28.8462C28.8462 126.929 26.227 126.94 23.077 126.029C21.9588 125.705 20.8718 125.282 19.8289 124.765C15.4674 122.59 11.5385 119.308 11.5385 109.437V23.0769ZM23.077 34.6154C19.8981 34.6154 17.3077 37.2058 17.3077 40.3846V51.9231C17.3077 55.1019 19.8981 57.6923 23.077 57.6923H80.7693C83.9481 57.6923 86.5385 55.1019 86.5385 51.9231V40.3846C86.5385 37.2058 83.9481 34.6154 80.7693 34.6154H23.077ZM103.846 40.2058H116.469C115.39 43.3673 115.385 45.975 115.385 45.975C115.384 46.0346 115.384 46.0942 115.385 46.1539V103.846C115.385 105.376 115.992 106.844 117.074 107.926C118.156 109.008 119.624 109.615 121.154 109.615C122.684 109.615 124.151 109.008 125.233 107.926C126.315 106.844 126.923 105.376 126.923 103.846V46.1539C126.935 45.9923 127.067 44.5673 127.823 43.0904C128.625 41.5327 129.029 40.3846 132.692 40.3846C136.327 40.3846 136.748 41.4808 137.562 43.0904C138.329 44.6192 138.45 46.1712 138.462 46.3327V109.615C138.453 109.796 138.453 109.977 138.462 110.158C138.306 119.319 134.469 122.429 130.165 124.581C125.781 126.773 121.154 126.923 121.154 126.923C121.154 126.923 116.538 126.802 112.137 124.581C107.74 122.36 103.846 119.094 103.846 109.437V40.2058ZM21.4558 69.2308C19.9257 69.4458 18.5437 70.2598 17.6138 71.4937C16.6838 72.7277 16.2822 74.2805 16.4972 75.8106C16.7121 77.3407 17.5261 78.7227 18.7601 79.6526C19.9941 80.5826 21.5469 80.9842 23.077 80.7692H40.3847C41.9148 80.7692 43.3822 80.1614 44.4641 79.0795C45.5461 77.9975 46.1539 76.5301 46.1539 75C46.1539 73.4699 45.5461 72.0025 44.4641 70.9205C43.3822 69.8386 41.9148 69.2308 40.3847 69.2308H23.077C22.8963 69.2223 22.7153 69.2223 22.5347 69.2308C22.354 69.2223 22.173 69.2223 21.9924 69.2308C21.8136 69.2225 21.6346 69.2225 21.4558 69.2308ZM56.0712 69.2308C54.5411 69.4458 53.1591 70.2598 52.2291 71.4937C51.2992 72.7277 50.8976 74.2805 51.1125 75.8106C51.3275 77.3407 52.1415 78.7227 53.3755 79.6526C54.6094 80.5826 56.1623 80.9842 57.6924 80.7692H80.7693C82.2994 80.7692 83.7668 80.1614 84.8487 79.0795C85.9307 77.9975 86.5385 76.5301 86.5385 75C86.5385 73.4699 85.9307 72.0025 84.8487 70.9205C83.7668 69.8386 82.2994 69.2308 80.7693 69.2308H57.6924C57.5117 69.2223 57.3307 69.2223 57.15 69.2308C56.9694 69.2223 56.7884 69.2223 56.6077 69.2308C56.429 69.2225 56.25 69.2225 56.0712 69.2308ZM21.4558 86.5385C19.9257 86.7534 18.5437 87.5674 17.6138 88.8014C16.6838 90.0354 16.2822 91.5882 16.4972 93.1183C16.7121 94.6484 17.5261 96.0304 18.7601 96.9603C19.9941 97.8903 21.5469 98.2919 23.077 98.0769H40.3847C41.9148 98.0769 43.3822 97.4691 44.4641 96.3872C45.5461 95.3052 46.1539 93.8378 46.1539 92.3077C46.1539 90.7776 45.5461 89.3102 44.4641 88.2282C43.3822 87.1463 41.9148 86.5385 40.3847 86.5385H23.077C22.8963 86.53 22.7153 86.53 22.5347 86.5385C22.354 86.53 22.173 86.53 21.9924 86.5385C21.8136 86.5302 21.6346 86.5302 21.4558 86.5385ZM56.0712 86.5385C54.5411 86.7534 53.1591 87.5674 52.2291 88.8014C51.2992 90.0354 50.8976 91.5882 51.1125 93.1183C51.3275 94.6484 52.1415 96.0304 53.3755 96.9603C54.6094 97.8903 56.1623 98.2919 57.6924 98.0769H80.7693C82.2994 98.0769 83.7668 97.4691 84.8487 96.3872C85.9307 95.3052 86.5385 93.8378 86.5385 92.3077C86.5385 90.7776 85.9307 89.3102 84.8487 88.2282C83.7668 87.1463 82.2994 86.5385 80.7693 86.5385H57.6924C57.5117 86.53 57.3307 86.53 57.15 86.5385C56.9694 86.53 56.7884 86.53 56.6077 86.5385C56.429 86.5302 56.25 86.5302 56.0712 86.5385ZM24.3404 103.846C22.8103 104.061 21.4283 104.875 20.4984 106.109C19.5685 107.343 19.1668 108.896 19.3818 110.426C19.5968 111.956 20.4108 113.338 21.6447 114.268C22.8787 115.198 24.4315 115.6 25.9616 115.385H40.3847C41.9148 115.385 43.3822 114.777 44.4641 113.695C45.5461 112.613 46.1539 111.145 46.1539 109.615C46.1539 108.085 45.5461 106.618 44.4641 105.536C43.3822 104.454 41.9148 103.846 40.3847 103.846H25.9616C25.7809 103.838 25.6 103.838 25.4193 103.846C25.2405 103.838 25.0615 103.838 24.8827 103.846C24.7021 103.838 24.5211 103.838 24.3404 103.846ZM56.0712 103.846C54.5411 104.061 53.1591 104.875 52.2291 106.109C51.2992 107.343 50.8976 108.896 51.1125 110.426C51.3275 111.956 52.1415 113.338 53.3755 114.268C54.6094 115.198 56.1623 115.6 57.6924 115.385H80.7693C82.2994 115.385 83.7668 114.777 84.8487 113.695C85.9307 112.613 86.5385 111.145 86.5385 109.615C86.5385 108.085 85.9307 106.618 84.8487 105.536C83.7668 104.454 82.2994 103.846 80.7693 103.846H57.6924C57.5117 103.838 57.3307 103.838 57.15 103.846C56.9694 103.838 56.7884 103.838 56.6077 103.846C56.429 103.838 56.25 103.838 56.0712 103.846Z"/>
</g>
<defs>
<clipPath id="clip0">
<rect width="150" height="150"/>
</clipPath>
</defs>
</svg>
